<svg xmlns="http://www.w3.org/2000/svg" viewBox="1388.865 1900.865 614.506 614.255"><defs><style>.a{opacity:0.4;}.b{fill:#6ec4dc;}</style></defs><g class="a" transform="translate(1388.765 2515.12) rotate(-90)"><path class="b" d="M205.358,98.286l6.767,12.03c1,1.253-.752,3.759-2.256,3.007a206,206,0,0,0-17.543-24.31c-1.754-2-3.759-4.26-6.265-4.511-2.506-.5-5.764,1.754-5.012,4.511,2.506,9.273.251,19.3-3.258,28.319s-8.521,17.292-11.278,26.565-3.258,19.8,1.754,28.069,16.541,12.781,24.811,7.769,7.518-20.3-1.754-22.806c-3.509-1-7.769.5-8.521,4.01s4.762,6.516,6.516,3.509c2.256,4.511-5.263,9.523-9.273,6.265-4.01-3.007-3.258-10.025.251-13.533,5.764-5.514,16.29-4.01,20.8,2.506s2.757,16.29-3.258,21.553-15.037,6.265-22.3,3.007c4.511,9.273,1.5,22.054-7.769,26.565s-22.555-2.757-22.3-13.032c.251-6.767,7.017-13.032,13.283-11.027,2.757,1,5.012,3.509,5.012,6.265s-3.007,5.513-5.764,4.762-3.509-5.513-.752-6.516c-4.511-.251-8.521,4.762-7.518,9.273.752,4.511,5.263,7.769,10.025,8.02,11.027.5,17.042-15.037,11.027-24.31s-18.8-11.528-29.322-9.523c-10.776,2.255-20.3,8.02-30.324,12.28a102.986,102.986,0,0,1-33.332,8.02,94.06,94.06,0,0,0,32.079,26.565A80.549,80.549,0,0,0,78.547,247.4a129.429,129.429,0,0,1,36.59,8.27c7.017,2.757,14.034,6.265,21.3,8.521s15.287,3.258,22.555,1.253,14.034-7.769,15.538-15.288-3.258-16.039-10.776-17.543c-7.518-1.253-15.287,6.767-12.781,14.034.5,1.253,1.5,2.757,2.757,3.007,3.759,1.253,5.513-4.762,5.012-8.771,6.015.251,6.767,10.776,1,13.032-5.514,2.255-12.28-3.007-13.032-9.022-1.5-10.275,11.278-19.047,21.052-15.287s13.784,16.791,9.523,26.314c7.518-3.258,16.791-2.255,22.806,3.509,5.764,5.764,6.767,16.039,1.5,22.054-5.514,6.015-16.791,5.514-20.8-1.253-2-3.258-2-7.769.5-10.526,2.757-2.757,8.27-2,9.273,1.5s-4.511,7.017-6.767,4.01c.5,4.26,5.513,7.518,9.774,6.516a10.453,10.453,0,0,0,7.769-9.523c.752-10.776-14.285-17.042-23.558-11.278-9.022,5.764-11.779,18.044-9.774,28.57s7.518,20.049,11.779,29.823a106.386,106.386,0,0,1,7.769,35.337,86.72,86.72,0,0,0,26.565-31.327c-3.258,22.054-19.3,41.6-40.349,49.371,12.28-14.034,7.017-35.838,0-53.13s-15.287-36.84-7.268-53.631c-9.523,6.767-22.806,5.764-33.833,2s-21.553-9.774-33.081-12.28a56.6,56.6,0,0,0-39.848,6.015,70.828,70.828,0,0,1,45.111-40.349c-19.548-8.772-41.853-20.8-45.361-42.1,8.772,9.022,22.806,10.275,35.086,7.518s23.307-9.022,35.086-13.283c11.779-4.01,25.312-6.015,36.59-.251-6.516-8.771-6.015-21.052-3.007-31.577s8.521-20.3,11.528-30.826a69.471,69.471,0,0,0-4.01-47.617c15.789,3.759,26.064,20.3,34.585,35.086m-21.3-21.3a4.542,4.542,0,0,0-5.513-3.007c.5,2,1.253,3.759,1.754,5.764,1,.251,2.256.5,3.007,0,1-.752,1.5-2.256.752-2.757m2.506,280.688c-2.506-1-4.511,2.757-3.258,5.012,1.5-.251,3.007-.5,4.01-1.5,1-1.253.5-3.258-.752-3.509M70.527,248.905a2.115,2.115,0,0,0,2,3.007,2.057,2.057,0,0,0,1.5-3.258c-.752-1-2.757-.752-3.509.5m-.752-55.887a2.248,2.248,0,0,0,3.509.5,2.308,2.308,0,0,0-1.754-2.757,1.994,1.994,0,0,0-2.256,2.255Z" transform="translate(89.615 95.038)"/><path class="b" d="M184.131,27.166c5.764.752,7.268-7.518,6.265-13.032l7.518.752A42.745,42.745,0,0,1,206.937.1c2.757,7.017,8.521,15.789,15.789,13.533.752,4.511,1.754,9.273,2.506,13.784,18.044-7.769,41.6,4.01,45.862,23.307,2.757,11.779-2.256,25.563-12.531,32.079S233,87.314,225.733,77.54,221.222,51.727,232,45.962c7.518-4.01,18.545-1.253,21.553,6.767s-7.017,17.794-14.285,13.283c4.511,1,7.017-6.516,3.509-9.273s-9.523.5-10.275,5.012,2.757,9.022,7.017,10.526c8.771,3.258,19.3-5.012,19.3-14.536S249.792,40.2,240.519,39.948C231,39.7,222.224,45.962,217.964,54.483c-7.518,15.538,2.506,36.59,19.047,40.85,9.774,2.506,20.55-.251,30.324,2.757,7.268,2,14.536-4.511,16.29-12.03s-.752-15.037-3.258-22.054c5.263,3.007,10.776,6.265,16.791,7.017s13.032-1.5,16.039-6.767a31.322,31.322,0,0,1,.5,20.3,32.356,32.356,0,0,1,17.543,9.774c-12.029,1.253-24.811,4.762-32.329,14.034-7.518,9.523-6.015,26.315,5.012,30.826,5.764,2.506,12.531,1,18.8,2s13.032,6.516,11.027,12.531c-1.5-5.263-7.769-7.769-13.283-8.27s-11.278.5-16.791-1c-11.779-3.759-16.039-19.548-11.278-30.826,5.012-11.278,16.29-18.545,27.568-23.307-3.509-1.253-7.017-2.506-10.526-3.509a52.086,52.086,0,0,0,0-15.287c-5.513,6.767-17.794,6.265-22.555-1,.752,7.268,1.5,14.786-1.253,21.3-2.757,6.767-10.025,12.03-17.042,10.275-9.774-2.757-20.3,0-30.324-2-18.545-3.509-31.577-25.312-25.813-43.356,4.01-12.28,16.54-22.054,29.322-20.8S265.33,51.225,261.32,63.756c-4.01,12.28-23.057,16.791-30.826,6.265-4.26-5.764-3.258-15.789,3.258-18.8s15.538,5.514,11.278,11.528c5.263.752,7.268-7.769,4.01-12.029-4.01-5.263-12.029-6.265-17.543-3.007s-8.521,10.275-7.769,16.791c1.754,14.536,22.054,21.8,33.833,13.283s12.531-27.818,2.506-38.595c-9.774-10.776-27.317-12.531-40.349-6.015,3.759-6.015-2-13.533-7.017-18.295-2.757-2.506-5.513-5.263-8.27-7.769,0,6.265-5.513,12.029-11.779,12.531V34.184c-10.776-4.511-23.808-4.26-33.582,2s-15.538,19.047-12.531,30.324,15.288,19.8,26.816,17.292S192.4,67.265,187.389,56.739c-3.258-6.767-11.779-11.027-18.545-7.769s-7.769,14.786-1,17.794c-3.759-4.01-1.253-11.779,4.01-13.533s11.528,2.256,13.032,7.518a14.127,14.127,0,0,1-5.513,14.786c-10.025,7.518-26.816-.752-28.319-13.032s10.025-24.31,22.555-24.56,24.059,9.774,27.317,21.8c4.511,16.039-5.012,34.835-20.8,40.6-11.278,4.01-23.808,2-35.337,5.263-6.767,1.754-13.533-3.509-16.29-9.774s-2-13.533-1.253-20.55c-5.012,7.017-16.541,8.27-22.806,2.506.752,4.01,1.5,8.27.251,12.28s-4.762,7.518-9.022,7.017c12.531,3.509,24.31,12.029,28.069,24.31s-3.759,28.069-16.541,29.823c-4.762.752-9.774-.752-14.536.251s-9.273,6.015-7.268,10.275a12.442,12.442,0,0,1,15.538-.5,12.3,12.3,0,0,1,3.007,15.287c-4.511,8.27-17.543,7.769-24.56,1.5-6.767-6.265-9.273-16.791-5.764-25.312a23.546,23.546,0,0,1,21.8-14.285c7.518.251,13.032-8.771,10.776-16.039-2.506-7.268-10.776-11.278-18.295-10.275S73.861,118.139,69.6,124.154c-3.508,6.265-6.015,13.283-8.521,20.55-1.253-13.283,6.516-27.066,18.545-33.081,9.022-4.511,20.8-4.26,27.818,2.757s6.516,21.052-2.506,25.312c-4.26,2-9.523,1.754-14.034,3.007-12.28,3.509-17.794,20.8-10.025,30.826,4.01,5.012,11.528,8.02,17.042,4.762s5.513-13.533-.752-15.287c-4.01-1-7.769,1.253-11.027,3.509-5.514-3.007-4.26-11.779.5-15.789s11.528-4.26,17.794-5.012,13.032-2.506,16.29-7.769c2.757-4.26,2.256-10.025.5-15.037-5.012-14.285-20.8-23.558-35.587-21.3,4.762-2.757,9.523-5.514,12.781-9.774s4.511-10.526,1.754-15.037c-1.754-2.757,3.258-5.514,6.265-4.01s5.012,4.762,8.27,5.263c7.769,1.754,13.784-12.029,21.052-8.521-5.263,8.521-5.514,20.3-.251,28.821a7.967,7.967,0,0,0,2.757,3.007c1.5.752,3.258.5,5.012.5,6.767-.752,13.784-1.5,20.55-2.506,6.516-.752,13.283-1.5,19.3-4.511,11.027-5.263,17.794-18.295,16.29-30.324-1.253-9.774-8.27-18.8-17.794-21.553s-20.8,2.256-24.56,11.278c-2.256,6.015-1,13.533,3.759,17.794s13.283,4.26,17.543-.5,2.757-13.784-3.007-16.29c-2,2.256-4.01,4.26-6.015,6.516,1.754,2.256,3.509,4.26,5.263,6.516-3.759,5.514-13.283.251-14.034-6.265-1-9.273,9.022-17.543,18.295-15.789s15.538,11.278,15.037,20.8c-1,15.538-20.3,25.813-34.585,19.548S139.271,61,145.787,47.215,168.844,24.911,184.131,27.166Z" transform="translate(91.795 0)"/><path class="b" d="M136.387,282.19c4.762,3.509,13.533.5,12.531-5.263a12.06,12.06,0,0,1-7.268-1c-.5-4.762,6.767-7.268,10.275-4.01,3.258,3.509,2,9.523-1.5,12.781-5.764,5.263-16.039,3.258-20.3-3.258s-2.506-16.039,3.258-21.052c5.764-5.263,14.786-6.015,21.8-3.258-4.26-9.774,0-23.307,10.025-27.066s23.057,6.265,20.3,16.541c-1.253,5.263-7.017,9.523-12.28,8.02s-6.767-10.275-1.754-12.781a7.09,7.09,0,0,1,4.01,8.02c5.764.752,8.521-8.02,5.012-12.781-6.015-7.769-20.55-2.757-22.555,7.017-2,9.523,5.764,19.3,15.287,22.054s19.548.251,28.57-3.509,17.543-9.022,26.816-12.03a61.031,61.031,0,0,1,37.843.251c-14.034-10.526-28.319-21.052-42.354-31.327a257.9,257.9,0,0,0,40.6-31.327,62.408,62.408,0,0,1-37.091.251c-8.521-2.506-16.29-6.767-24.56-10.025s-17.042-5.764-25.813-4.511-17.292,7.268-19.3,15.789,4.26,19.047,13.283,18.8c8.772,0,14.786-13.283,8.02-18.8a11.265,11.265,0,0,0-5.764,10.025c-6.265-1-5.513-11.779.5-13.533s12.03,4.511,12.28,10.776c.5,10.526-12.781,18.295-22.3,14.034s-13.032-17.543-8.27-26.816c-8.27,4.511-19.8,2.506-25.061-5.012-5.513-7.518-3.007-20.049,5.263-24.059,4.762-2.256,11.278-1.754,14.786,2.255s3.258,11.027-1.253,14.034c-2,1.253-4.762,1.754-6.767.251s-2-5.012,0-6.015c2.757-1.5,8.771-.752,7.268-3.759-4.762-6.767-17.292-3.007-18.8,5.012s6.767,15.789,15.037,15.538,15.287-7.017,17.794-14.786,1.5-16.541-1-24.31-6.516-15.288-9.523-22.806A110.124,110.124,0,0,1,145.66,82.2a121.434,121.434,0,0,0-24.56,27.317A67.541,67.541,0,0,1,159.695,61.9a59.971,59.971,0,0,0-4.762,46.364c3.007,9.523,8.521,18.295,11.528,27.818a60.241,60.241,0,0,1,0,37.592,45.179,45.179,0,0,1,31.828-3.759c9.273,2.255,17.292,7.518,26.314,10.776a64.978,64.978,0,0,0,51.627-3.759c-6.015,21.052-27.568,32.831-47.366,42.354,19.548,8.772,41.1,20.049,46.614,40.6a58.226,58.226,0,0,0-38.344-5.263c-12.029,2.256-23.056,8.521-34.585,12.531s-24.811,6.015-35.838.5c6.015,9.523,4.762,22.054,1.253,32.58-3.509,10.776-9.273,20.55-12.03,31.577a61.376,61.376,0,0,0,5.513,43.106A62.147,62.147,0,0,1,123.1,330.308a102.257,102.257,0,0,0,25.061,25.813,82.135,82.135,0,0,1,5.263-32.83c3.258-8.521,7.769-16.791,10.526-25.312,2.757-8.771,4.01-18.545.251-26.816s-13.533-14.285-22.3-11.528c-9.273,3.759-13.032,17.042-5.514,22.555M146.913,74.932a10.058,10.058,0,0,0-3.258,4.01,3.045,3.045,0,0,0,5.012,0,3.114,3.114,0,0,0-1.754-4.762m0,286.953a3.59,3.59,0,0,0,4.26,3.258c.251-1.5.251-3.007-.752-4.01s-3.258-.752-3.258.752Z" transform="translate(182.394 93.08)"/><path class="b" d="M217.141,64.456A30.617,30.617,0,0,1,199.1,88.264,50.42,50.42,0,0,0,212.379,62.7c1.253-6.767,1.5-13.784,5.012-19.548s12.531-9.022,17.042-3.759c2.506,2.757,2.506,6.767,3.759,10.275,1,3.509,4.26,7.017,7.769,6.015,7.017-2,12.28,8.771,8.27,15.037s-12.28,8.27-19.548,9.273c-7.268,1.253-15.538,2.506-20.049,8.27a32.9,32.9,0,0,1,21.553,5.514c3.007,2.256,5.764,5.012,9.273,6.265,3.509,1.5,8.27,1,10.275-2.256-6.516,1.253-12.531-6.265-10.776-12.531s9.523-9.774,15.789-7.769,10.526,8.521,10.776,15.037c.752,11.528-10.776,22.3-22.3,20.8-7.769-1-14.285-6.516-21.3-10.025s-17.042-4.01-21.553,2.506c17.292-4.01,36.59,8.27,40.349,25.563,2.256,10.025-1.5,22.054-10.776,26.565s-22.806-3.007-21.553-13.283c1.253-8.521-4.26-17.794-12.531-20.55s-18.295.5-22.806,7.769c-2.256,3.509-3.258,8.27-1.754,12.28s6.265,6.767,10.275,5.263c6.516-2.256,6.265-12.03,2-17.292,3.007-5.513,12.28-4.01,15.789,1.253s3.759,11.779,4.511,18.044c.5,6.265,2.255,13.283,7.518,16.791,4.511,3.007,10.526,2.506,15.538.5,14.786-5.263,24.31-22.054,21.553-37.342a79.291,79.291,0,0,1,12.781,19.047c3.258-2.757,6.767-5.514,11.027-5.012,4.01.5,7.268,6.265,4.26,8.771-4.01,3.258-4.762,9.273-3.007,14.285,1.5,5.012,5.012,9.022,8.521,12.781A47.742,47.742,0,0,0,251.475,185c5.764,14.034.251,30.575,6.015,44.609,6.516,15.538,28.069,22.3,42.354,13.032,8.521-5.514,13.784-16.541,11.027-26.314-3.007-9.774-15.288-16.29-24.31-11.528a15.31,15.31,0,0,0-7.518,8.771c-1.5,4.762-.5,10.526,3.258,13.533,3.759,3.258,10.275,2.757,13.032-1.253s-.251-11.027-5.263-11.027c5.764-1.253,11.027,5.263,9.774,11.027-1.5,5.513-8.27,9.022-13.784,7.518s-9.774-6.767-10.526-12.531a19.352,19.352,0,0,1,11.278-20.3c10.526-4.26,23.558,2.757,27.317,13.533s-1,23.307-10.025,30.324a32.953,32.953,0,0,1-31.076,5.012c-10.275-3.759-18.545-13.032-20.8-23.558-2.506-11.027,1-23.307-2.757-34.084-2.255-6.516,4.511-13.032,11.027-14.786,6.767-1.754,14.034-.752,20.55-3.258-8.02-4.01-8.521-17.543-.752-22.054-4.261,1-8.771,2-13.032.752s-7.769-5.513-6.767-9.774c-4.762,11.779-11.779,23.558-23.307,28.821s-28.069,0-30.826-12.28c-1.253-5.513.5-11.027-.5-16.541-.752-5.513-6.015-11.278-11.278-9.022,4.511,4.511,4.762,12.781.251,17.292a12.491,12.491,0,0,1-17.292-.251c-3.759-3.759-4.511-9.774-3.007-15.037,2.506-9.523,12.029-16.541,21.8-16.541s19.047,7.518,21.3,16.791c1.5,5.764.752,12.28,4.762,16.791,4.511,5.012,13.283,3.759,17.794-1.5,4.26-5.012,5.012-12.531,3.258-19.047-4.511-17.042-24.059-28.069-41.1-23.307.752-7.017,9.022-11.278,16.039-10.526s13.533,4.511,19.8,7.518c6.516,3.007,14.034,5.514,20.55,2.757,8.771-3.509,12.029-16.29,6.015-23.558-3.509-4.26-11.278-5.764-14.285-1.253a6.459,6.459,0,0,0,2,8.771,6.65,6.65,0,0,0,8.771-2.256c3.509,6.767-5.263,14.536-13.032,13.784s-14.034-6.265-20.8-10.025-16.541-5.012-21.3.752a29.607,29.607,0,0,1,22.054-18.545c5.012-1,10.526-.5,15.288-2.757s7.769-9.022,4.26-12.781c-2.506-2.757-7.268-2.506-10.025-5.012-3.258-2.757-3.007-8.27-6.516-10.776-4.01-2.757-9.774.5-11.779,5.012S217.642,59.443,217.141,64.456Z" transform="translate(261.783 55.187)"/><path class="b" d="M121.541,99.472a28.125,28.125,0,0,1-17.292-20.8C103.5,73.659,104,68.4,101.993,63.885s-8.27-7.769-12.029-4.511c-2.757,2.506-2.506,7.518-5.012,10.275-2.757,2.757-7.518,2.757-10.025,6.015-3.007,4.01.5,10.025,5.263,12.029s10.025,1.253,14.786,2a26.813,26.813,0,0,1,20.049,16.039c-5.764-4.762-14.536-2.256-20.8,1.754s-12.28,9.523-19.8,10.025S58.887,109.5,63.4,103.482c2,5.012,11.779,1.754,10.275-3.509-1.5-6.015-11.278-4.511-14.536.5C53.624,109,60.391,122.529,70.666,123.28,82.194,124.032,90.715,112,101.993,110a19.4,19.4,0,0,1,19.8,9.774c-16.29-3.759-34.585,6.265-40.1,22.054-2.256,6.265-2.256,14.034,1.5,19.3,4.01,5.513,12.781,7.268,17.543,2.757s3.509-12.029,5.263-18.295c2.256-9.022,11.278-15.789,20.55-15.789s18.044,7.017,20.3,16.039c2.256,9.273-6.015,21.3-14.786,17.794-7.268-3.007-8.02-13.533-4.762-20.55-5.764-.752-9.774,5.514-10.526,11.278-.5,5.764.752,11.528-.752,17.042-3.007,11.278-17.794,16.039-28.57,11.779S69.663,168.14,65.4,157.364a36.848,36.848,0,0,0-4.762,10.025c-2.256-1.253-4.762-2.757-7.268-2.256-2.506.251-4.762,3.509-3.258,5.514,3.509,5.263,2,13.533-3.258,17.042,6.767-.5,13.784-1,19.8,1.5,6.265,2.506,11.278,9.273,9.273,15.789-3.007,10.776.251,22.555-2.757,33.582-4.762,18.044-28.069,28.319-44.609,19.8-9.774-5.012-16.541-16.29-15.037-27.317S26.056,211,36.833,212.5c11.027,1.5,18.8,15.287,13.533,24.811-2.506,4.762-8.02,8.27-13.533,7.268-5.514-.752-10.025-6.265-9.022-11.528s8.02-9.022,12.531-6.015c-4.26-6.015-15.538-3.759-17.042,3.258-.752-6.265,6.265-12.28,12.28-10.526,6.265,1.754,9.022,10.526,5.012,15.538,1.5-3.759-4.511-7.017-7.518-4.26s-1.253,8.27,2.506,9.774,8.02-.5,10.526-3.509c5.263-7.017.752-18.295-7.518-20.8s-17.543,3.258-20.3,11.528.752,17.543,7.017,23.307c12.531,11.278,35.587,6.015,42.1-9.273,6.015-13.784-.5-30.826,5.764-44.359a42.56,42.56,0,0,0-33.582-3.759c3.007-4.26,6.015-8.521,7.017-13.784,1-5.012-.251-11.027-4.511-14.034-3.007-2,1.253-6.767,4.762-6.265s7.268,2.757,10.526,1.253c6.516-2.757,5.263-16.039,12.28-15.287-3.007,15.037,8.27,31.577,23.307,34.585,4.26.752,8.772.752,12.28-1.754,5.012-3.509,6.516-10.275,6.767-16.29s.251-12.531,3.509-17.794,11.779-7.268,15.287-2c-2.256,4.511-4.511,10.526-1.253,14.536,3.258,3.759,10.025,2.506,12.531-1.754s1.5-9.774-1.253-13.784c-7.518-10.526-27.066-8.02-31.577,4.01-2.757,7.017-1,16.039-5.764,21.8-7.268,8.27-22.054,1.754-26.064-8.521s-.752-22.555,7.017-30.575,19.047-11.779,29.823-11.528c-5.263-5.514-14.536-3.759-21.052,0S80.69,126.037,73.172,127.04c-11.528,1.754-23.057-9.774-21.553-21.3A15.941,15.941,0,0,1,62.646,92.455c6.015-1.754,12.781,1.5,14.786,7.268,1.754,5.764-2.757,12.781-8.772,12.781,12.28,6.015,24.811-17.042,36.84-11.027-3.258-5.263-9.774-7.017-15.789-7.769s-12.531-1-17.543-4.26c-4.511-3.258-7.769-10.776-4.01-15.538,2.506-3.007,6.767-3.759,10.526-5.263S86.2,63.885,85.2,60.126c-1.754-6.516,8.27-11.278,14.034-7.769S107,63.384,107.757,70.4c1,6.767,1.754,14.285,6.516,19.047,4.26-11.779,8.772-23.808,13.032-35.587-1.5,6.015-9.273,9.273-14.786,6.516A12.984,12.984,0,0,1,106.5,44.587c2-5.764,8.02-9.774,14.285-10.275,9.774-.5,19.3,8.27,19.3,18.044,0,7.769-4.762,14.536-8.521,21.553-3.509,7.017-6.015,15.789-1.5,22.054,2,2.757,5.263,5.514,4.26,8.771-7.268-1.5-10.776-10.526-9.774-17.794s5.263-13.784,8.27-20.55,4.511-15.037.5-21.3c-4.26-6.767-14.786-8.27-20.8-3.007-3.007,2.506-4.762,6.767-3.258,10.275,1.253,3.509,6.516,5.514,9.273,2.757s-.5-8.772-4.01-7.268c3.258-5.012,12.029-3.258,14.786,2s1.253,12.029-1.754,17.292c-2.757,5.263-6.767,10.025-9.022,15.538C116.779,88.445,117.029,95.713,121.541,99.472Z" transform="translate(20.057 51.498)"/><path class="b" d="M199.994,287.569a28.974,28.974,0,0,1,16.29,21.3c.752,4.511.251,9.273,2.256,13.533s7.518,7.268,11.027,4.511c2.757-2,3.007-6.266,5.263-9.022,3.258-4.01,10.776-4.01,12.531-8.772,1.5-3.759-1.754-8.02-5.514-9.273-3.759-1.5-8.02-1-11.779-1.5a32.411,32.411,0,0,1-24.811-16.29,29.765,29.765,0,0,0,23.558-1.754c4.26-2.255,8.02-5.513,12.28-7.769s9.774-3.258,14.034-1,5.764,9.273,2,12.28c-1-3.509-7.017-3.509-8.521-.251s1,7.518,4.511,8.521,7.268-1,9.774-3.759c5.263-6.265,3.007-17.042-4.26-21.052-6.265-3.258-13.784-1.5-20.3,1.5s-12.28,7.268-19.3,8.521-15.287-1.253-17.543-8.02c8.521-1.253,17.042-2.506,24.811-6.015,7.769-3.759,14.786-10.025,16.791-18.545,2-8.27-2-18.295-10.275-21.052s-18.545,4.762-16.791,13.032c1.5,8.02-3.509,16.29-10.776,19.8s-16.29,2-23.057-2.506c-4.762-3.509-8.521-8.772-8.772-14.536-.5-5.764,3.007-12.03,8.521-13.784,4.762-1.5,10.776.5,13.283,5.012,2.757,4.26,1.754,10.526-1.754,14.034,4.762,2.256,10.275-2.757,11.278-8.02s-.251-10.776.752-16.039c2.255-12.28,17.543-18.545,29.322-14.536s19.548,15.287,23.307,27.066c1.754-3.509,3.509-7.017,5.012-10.526,4.762.5,9.523.752,14.285,1.253-7.268-5.012-6.015-18.044,2-21.553-6.265-2.506-13.283-1-19.8-2s-13.533-6.767-11.779-13.032c3.258-11.027,1.253-23.057,4.01-34.084,4.01-16.29,20.55-29.322,37.341-27.317s29.573,21.3,23.307,37.091c-3.258,8.02-11.278,14.285-19.8,14.536-8.772.251-17.292-6.265-18.8-14.786s5.012-18.044,13.784-18.546c5.263-.5,10.776,2.757,12.03,7.769s-3.759,10.776-8.772,9.273c4.762-.752,6.265-7.769,3.007-11.027s-9.273-2.506-12.781.752c-5.764,5.764-3.509,16.791,3.509,20.8,7.268,4.01,16.791,1,21.8-5.514,9.022-12.029,0-31.828-14.536-35.337-14.786-3.509-30.324,7.268-35.086,21.8-3.258,10.275-2,21.3-4.511,31.828-1.5,6.767,5.012,13.283,12.03,14.536,7.017,1,13.784-1.754,20.3-4.511,1.754,4.762-2.757,9.022-5.764,13.032-3.007,3.759-4.26,11.027.5,12.531,4.26,1.253,2.757,8.27-1.253,9.774s-8.521-.5-12.531-2.757c-4.01,6.015-8.27,12.28-12.28,18.295,3.007-16.29-9.523-33.582-25.813-36.339-3.258-.5-6.516-.5-9.273,1-5.764,2.757-7.769,9.774-8.521,16.039s-.5,13.032-4.01,18.295c-3.258,5.263-12.029,7.769-15.789,2.757,2.255-4.26,4.762-9.774,2-13.784-3.007-4.762-11.278-3.258-14.034,1.754s-.5,11.528,3.509,15.288c9.523,9.022,28.319,3.258,31.076-9.774.752-3.759.5-7.769,1.754-11.528,3.759-11.278,21.553-11.779,28.57-2.256s3.759,23.808-4.511,32.079c-8.27,8.521-20.049,12.28-31.577,14.536,6.265,4.511,15.037,2,21.8-1.754s13.032-9.022,20.8-9.523c11.779-.752,22.054,12.28,18.8,23.558a15.77,15.77,0,0,1-12.03,11.278c-5.764,1-12.03-2.757-13.283-8.27s3.509-12.029,9.273-11.528c-2-5.263-9.523-1.253-13.784,2.256a37.371,37.371,0,0,1-24.811,8.521c4.762,5.012,12.28,6.015,19.3,6.767s14.536,2.256,18.545,7.769.251,16.039-6.516,15.037c-8.521-1.5-8.27,14.285-15.789,18.295-4.511,2.506-10.526-.752-13.283-5.263s-3.258-9.774-4.26-15.037A54.5,54.5,0,0,0,199.994,287.569Z" transform="translate(261.137 189.199)"/><path class="b" d="M92.506,312.911c3.258,2.757,3.007,8.521,6.516,10.526,3.759,2.255,8.521-1,10.275-5.012,1.5-4.01,1-8.521,1.5-12.781a27.117,27.117,0,0,1,15.538-21.3,68.173,68.173,0,0,0-11.779,26.064c-1.253,6.265-1.754,13.283-6.516,17.794-4.511,4.511-14.786,2.256-14.034-4.26,1-10.275-20.049-10.776-20.3-21.052,0-5.764,6.767-8.771,12.531-10.275,8.521-2.256,17.042-4.511,25.312-6.767-11.779-5.263-23.307-10.526-35.086-16.039-1.253,2.757,2.506,4.511,5.012,6.265,4.762,3.759,3.007,12.531-2.506,15.538-5.514,2.757-12.781.251-16.541-4.762-7.769-10.275,1-27.568,13.784-27.568,7.769,0,14.285,5.012,21.052,8.772s15.538,6.265,21.8,1.5c-9.022-1.5-18.044-4.01-25.563-9.022s-13.533-13.283-14.034-22.3,5.263-18.8,14.034-20.8,19.3,5.514,18.295,14.536a18.8,18.8,0,0,0,10.526,18.295,18.4,18.4,0,0,0,20.8-3.759c3.258-3.258,5.012-8.02,4.01-12.28-1-4.511-5.514-8.02-10.025-7.017s-7.017,7.017-4.01,10.526c3.759,4.26-3.007,11.027-8.27,9.022s-7.518-8.02-8.02-13.784c-.5-5.514,0-11.528-2.506-16.54-5.012-9.774-19.8-11.027-28.57-4.26S73.96,230.71,74.211,241.737c-6.516-1-6.015-11.779-11.779-14.536C56.919,224.7,48.4,230.71,45.39,225.447c4.511-3.509,6.015-10.025,4.762-15.789s-4.26-10.526-7.518-15.538c6.767,2.506,14.034,4.762,20.8,3.258,7.017-1.754,13.032-9.273,10.275-15.789-3.509-9.022-1.754-19.3-4.26-28.821-3.258-11.779-14.786-21.3-27.066-21.052s-23.808,11.027-23.808,23.307c0,7.268,4.26,14.786,11.027,17.543s15.538,0,18.8-6.516c3.007-6.516-1.253-15.789-8.521-16.791-3.258-.5-6.767,1-7.769,4.01s2.757,6.767,5.514,5.012c3.759-2.256,8.771,3.258,6.767,7.268s-7.518,5.012-11.779,3.258c-4.01-1.754-7.017-5.513-9.523-9.022,3.007,6.516,13.533,8.27,18.545,2.757C36.87,165.55,29.6,161.29,29.1,155.776S33.862,145,39.626,144.749s10.776,4.01,12.781,9.273c3.759,10.275-5.514,22.806-16.541,23.057-11.027.5-20.8-9.774-21.553-20.8-.5-11.027,7.017-21.553,17.292-25.813C47.9,123.7,69.2,133.973,73.96,151.015c2.757,10.526.251,22.054,4.01,32.079,2.506,6.265-2.256,13.533-8.521,16.039-6.265,2.757-13.283,2-19.8,1.253,6.516,4.511,8.521,14.536,4.01,21.052,6.516-2.506,15.037,2,16.29,9.022C73.459,219.683,80.476,209.157,91,204.9s25.061.5,28.069,11.278c1.5,5.514.251,11.278,1.5,16.791,1,5.514,6.516,11.278,11.779,9.022-4.01-3.007-5.263-9.022-3.258-13.533a11.6,11.6,0,0,1,12.531-6.015c8.521,2,11.278,13.533,7.518,21.3-3.759,7.518-12.28,12.03-20.55,11.528A21.624,21.624,0,0,1,110.3,240.484c-2-6.516-1.253-14.285-6.516-18.545-4.511-3.509-11.528-2-15.287,2.255s-4.511,10.526-3.258,16.039c3.509,17.042,23.057,27.317,40.1,24.31-1,6.516-8.771,10.275-15.287,9.523S97.769,269.3,91.754,266.3s-13.032-5.513-19.047-3.007c-7.518,2.757-11.027,13.032-7.017,19.8,2,3.258,5.514,5.764,9.273,5.263s6.767-4.762,5.263-8.27-7.769-3.509-8.521.251c-3.759-3.007-2.256-9.523,1.754-11.779s9.273-1.5,13.533.752c4.26,2,7.769,5.263,12.03,7.268a30.631,30.631,0,0,0,22.054,2.256,28.051,28.051,0,0,1-20.3,14.285c-4.762.752-9.774.5-14.034,2.506s-7.268,8.27-3.759,11.779C85.489,310.907,89.749,310.656,92.506,312.911Z" transform="translate(21.524 193.179)"/><path class="b" d="M111.777,209.288c11.528,2.256,17.794,16.541,14.285,27.818s-14.285,18.8-25.312,22.3c3.258,1.5,6.265,3.258,9.523,4.762-.5,3.759-.752,7.769-1.253,11.528,6.767-4.511,16.791-3.258,22.054,2.757-.752-6.265-1.253-13.032,1-18.8,2.256-6.015,8.521-10.776,14.786-9.273,11.027,2.757,22.806.5,33.833,4.01,12.781,4.01,22.806,16.039,23.307,29.322s-9.523,26.565-22.806,28.57c-8.27,1.253-17.543-1.754-22.555-8.521s-5.263-17.042.251-23.558,16.29-7.769,22.555-2.506c5.514,4.762,6.265,14.786.251,18.8s-16.039-3.258-12.781-9.774c-3.509,1.253-4.511,6.265-2.757,9.774s5.012,5.514,8.27,7.769c-6.516-1-12.531-6.767-12.029-13.283s10.275-10.777,14.285-5.764a5.847,5.847,0,0,0-4.762,5.012c-.251,3.258,4.26,5.514,7.017,3.759s3.759-5.513,2.757-8.771c-2-6.265-10.025-9.273-15.789-6.516s-8.772,10.275-7.017,16.29c1.754,6.265,7.268,11.027,13.533,12.531,12.781,3.007,26.314-8.02,27.317-21.051s-8.771-25.563-21.553-29.071c-9.523-2.757-20.049-.752-29.572-3.509-6.767-2-13.533,4.511-14.786,11.528s1.5,13.784,4.26,20.3c-8.772-6.015-21.8-12.03-29.071-4.261-2,2.255-5.514-1.253-5.263-4.26s2-5.764,1.754-8.521c-1-7.268-13.533-6.767-16.29-13.784,10.776-.251,22.054-3.007,29.071-11.027s7.268-22.3-1.754-28.069c-4.511-2.757-10.025-3.007-15.287-3.509s-10.776-1.253-14.536-5.012-3.759-11.278,1-13.283c3.759,2.255,8.521,4.26,12.28,1.754,4.26-2.757,3.258-10.025-1-12.781s-10.025-1.5-14.034,1.754c-9.523,7.518-7.017,25.312,4.26,30.074,7.017,3.007,15.538,1.5,21.3,6.516,5.514,4.762,5.263,14.285.5,19.8s-12.781,7.519-20.049,6.516c-16.791-2.256-29.823-19.8-26.816-36.59,2.256,15.789,13.283,31.828,29.071,33.081,5.263.251,10.776-1.253,14.285-5.012,3.509-4.01,4.26-10.526.752-14.536-4.26-4.762-11.528-4.01-17.794-5.514a21.59,21.59,0,0,1-15.287-16.039,21.865,21.865,0,0,1,7.518-20.8c4.26-3.509,10.275-5.263,15.538-3.509,5.263,1.5,9.523,7.017,9.022,12.531-.752,8.521-14.034,12.781-19.3,6.015-2.256,4.762,2.757,10.025,8.02,11.027C101,209.539,106.514,208.286,111.777,209.288Z" transform="translate(95.982 267.981)"/><path class="b" d="M238.275,207.422c6.265.251,11.779-6.015,11.528-12.531-.251-6.265-5.263-12.03-11.528-13.784-10.526-3.007-22.555,5.012-24.56,16.039-1.754,10.776,5.764,22.054,16.29,25.312s22.555-1.253,29.322-10.025,8.27-20.8,4.762-31.327c-.752-2.256-1.5-4.762.251-6.516a45.31,45.31,0,0,0,14.285.752c-1.754-2.757-.251-6.767,2.256-8.772s6.015-2.757,9.273-3.509c-1.754-3.007-5.764-3.759-8.771-5.764-3.007-1.754-4.762-7.017-1.5-8.521a26.2,26.2,0,0,0-15.789,1.253c0-2.506,1-4.762,1.754-7.268a34.038,34.038,0,0,0-5.263-30.074c-6.516-8.27-17.794-12.781-28.069-10.526-10.275,2.506-18.546,12.029-18.546,22.555s9.022,20.55,19.548,20.8c7.268.251,14.786-4.26,16.791-11.278s-2.757-15.287-10.025-16.29c-3.509-.5-7.769,1.754-8.02,5.263-.251,2.757,1,6.767-1.754,7.268-4.762-6.015,1.754-16.039,9.273-15.538s13.283,8.771,12.531,16.29c-.752,10.025-11.027,18.295-21.3,17.543s-19.047-9.273-20.55-19.3c-1.754-10.025,3.509-20.55,11.779-26.315,11.528-8.02,28.319-6.265,38.595,3.007,10.275,9.523,13.282,25.563,7.769,38.595,3.509-1,7.518-1.754,11.027-.251s5.263,6.767,2.506,9.022c5.263,2.506,10.526,4.762,15.789,7.268-1.5,4.01-6.767,4.762-10.526,6.516-4.01,1.754-6.767,8.27-2.757,9.774a80.175,80.175,0,0,1-15.789,3.258c4.26,14.786-.5,32.329-13.032,41.351s-32.079,7.017-41.351-5.513c-9.022-12.531-3.759-33.332,11.027-38.093,8.521-3.007,19.3.251,23.808,8.27s1.5,19.548-7.017,23.057c-4.01,1.754-9.273,1.253-12.531-1.754-3.258-3.258-3.258-9.022.251-11.779,2.256,1.5,1,5.012,1.754,7.769C232.761,205.919,235.518,207.422,238.275,207.422Z" transform="translate(316.335 147.547)"/><path class="b" d="M78.442,116.235c5.764,10.776,2.506,26.064-8.02,32.079s-26.565-.752-28.069-12.781c3.258,9.523,15.538,14.285,24.56,10.025s13.283-16.039,9.774-25.563c-3.509-9.273-14.034-15.287-23.808-14.536s-18.8,8.02-22.555,17.292-2.506,20.3,2.506,28.821c-2.757,1.5-6.015-.251-9.022-.752s-7.268,2.256-5.514,4.762c1.5,2.256-1.754,4.762-4.511,5.263S7.518,163.1,8.27,165.606A13.153,13.153,0,0,1,19.3,175.129c1.253,5.012,10.275-1,14.034,2.506-4.511,9.022-5.012,20.3-.5,29.322s14.034,15.789,24.059,15.789,20.049-7.268,22.3-17.042-4.01-21.052-13.784-23.558-21.052,5.513-21.553,15.538c-1.5-6.516,1.754-13.533,7.518-17.042a19.781,19.781,0,0,1,19.047-.5c12.28,6.015,16.039,24.059,8.27,35.337s-24.56,14.536-36.59,7.769c-12.029-6.516-18.295-21.553-16.039-35.086.5-2.506.752-5.513-1-7.017s-4.511-.5-7.017-.251-5.514-1.754-4.26-3.759c1.754-3.007-1.754-6.516-5.012-7.769S1.5,167.36,0,164.353a66.493,66.493,0,0,1,13.784-7.518c-.752-2-1.5-4.26-.752-6.516.752-2,3.509-3.759,5.263-2.255,2.256,1.754,5.764-.251,6.767-3.007.752-2.757,0-5.764-.5-8.521C22.3,123,30.324,108.215,43.106,103.2,55.887,98.441,72.177,104.205,78.442,116.235Z" transform="translate(0 152.774)"/><path class="b" d="M142.454,241.283c11.528-4.511,24.811-1.754,36.84-4.26,6.516-1.253,12.781,3.759,15.037,10.025s1.754,13.032,1,19.548c2.757-2.506,5.514-5.012,8.771-6.265,3.509-1.253,7.769-.752,10.025,2.255,1.253,1.5,3.759,0,4.01-2s-.752-3.759-1-5.764c-.5-4.511,4.26-9.022,8.771-8.02-10.526-4.26-20.8-11.027-25.312-21.553s-.5-24.811,10.275-28.57c5.263-1.754,11.027-1,16.54-1.5s11.779-3.008,13.283-8.27c2,6.015-4.762,11.278-11.027,12.28s-13.032-.251-18.545,2.255c-10.025,4.762-11.027,20.3-3.759,28.821s19.047,11.528,30.324,12.28c-3.509,6.265-15.037,6.015-16.29,13.283-.5,3.007,1.253,5.764,1.5,8.771,0,3.007-3.509,6.265-5.514,4.01-3.509-4.01-9.523-4.762-14.536-3.258s-9.273,4.762-13.283,8.02a46.442,46.442,0,0,0,1-24.811c-1-4.511-4.762-9.774-9.022-8.02-12.03,4.762-26.064.251-38.093,5.012a26.526,26.526,0,0,0-16.29,18.295,27.111,27.111,0,0,0,5.764,24.059c5.514,6.265,14.536,10.025,22.806,7.518s14.285-11.027,12.28-19.3c-1.754-8.27-12.531-13.533-19.8-9.022-4.01,2.506-6.265,7.769-4.01,11.779s9.523,4.01,10.776-.251c-1.5-2.506-3.258-5.263-4.762-7.769,5.012-2.255,11.779,1,13.283,6.265s-2.255,11.528-7.518,12.531c2.256-2.506,4.762-5.012,5.263-8.521s-1.754-7.268-5.012-7.268c2.506,4.26-.5,10.526-5.514,11.528-4.762,1-10.024-2.757-11.278-7.518s1-10.275,5.012-13.283c8.771-7.017,24.059-1,26.816,10.025s-6.015,22.806-17.042,24.811-22.806-4.762-28.069-14.786C118.145,269.1,126.415,247.549,142.454,241.283Z" transform="translate(185.349 281.348)"/><path class="b" d="M148.981,130.085c-4.762-7.769-9.523-16.039-17.292-21.052-8.27-5.764-19.3-7.518-26.064-15.037a22.057,22.057,0,0,1-4.01-22.054c6.767-17.042,31.828-19.047,42.1-34.334,1.5-2.256,5.012-2.256,7.518-1s4.26,3.509,6.015,5.514c9.774,9.523,25.813,10.526,34.585,21.052,7.518,9.523,5.764,25.061-3.759,32.329-3.509,2.757-7.769,4.26-11.528,6.265a59.322,59.322,0,0,0-27.568,28.319m.5-6.265a42.2,42.2,0,0,1,16.541-22.3C170.784,98.257,176.3,96,181.31,92.493s9.273-8.02,10.024-14.034c1.253-9.523-7.017-17.292-15.538-21.8-8.27-4.511-18.044-7.518-23.808-15.037-1.253-1.754-3.759-1.754-5.764-.752a18.244,18.244,0,0,0-4.511,4.26c-6.516,6.767-15.789,10.025-23.558,15.287S103.87,75.2,107.128,83.972c3.007,7.518,11.779,10.776,19.047,14.536A56.937,56.937,0,0,1,149.482,123.82Z" transform="translate(151.005 53.715)"/><path class="b" d="M188.921,214.214c11.779-3.007,25.312,4.01,30.074,15.287s1,25.312-8.27,33.332-23.057,9.774-34.585,5.263c.5,2.757,1,5.764,0,8.27a6.2,6.2,0,0,1-6.265,4.762c-6.015-.752-5.513,10.526-11.027,13.283-2.255-4.01-4.762-7.769-7.017-11.779-.5-.752-1.253-1.754-2.256-1.5-2.757,1-6.015-1.253-7.268-4.01s-1-6.015-.752-9.022c-10.526,3.759-22.806,2.506-31.828-3.759-9.273-6.265-14.786-17.794-13.032-28.821,1.5-11.027,10.526-20.8,21.553-22.555s22.806,5.263,26.064,16.039c1.5,5.514.752,12.03-2.506,16.541a15.862,15.862,0,0,1-15.287,6.265c10.025-1,17.042-12.531,14.034-22.054s-14.536-15.037-24.059-12.28S100.2,230.254,100.7,240.278s7.268,19.047,16.29,23.307c9.022,4.01,20.049,3.258,28.821-1.5a69.894,69.894,0,0,0,1.754,16.039c1-3.007,6.015-1,7.268,2s2.506,7.017,6.015,7.017a11.664,11.664,0,0,1,10.776-11.278c.251-4.762.5-9.273.752-14.035,10.275,6.015,24.059,6.015,33.833-.752s14.034-21.052,8.772-31.828-20.3-15.789-30.324-9.273c-7.017,4.511-10.776,14.034-7.769,21.553,3.007,7.769,12.781,12.28,20.3,8.771-9.273,5.263-22.555-1.754-24.56-12.28C170.375,228,178.4,216.971,188.921,214.214Z" transform="translate(145.148 320.195)"/><path class="b" d="M35.063,159.645c-2-1.5-2.256-4.511-1-7.017,1.253-2.256,3.258-4.01,5.012-5.764,10.275-10.526,11.278-28.821,23.808-36.59,7.518-4.511,18.295-3.509,24.56,2.757,5.263,5.012,7.518,12.531,10.776,19.047a49.017,49.017,0,0,0,26.064,22.555c-8.02,4.26-16.29,8.771-21.3,16.29-6.015,8.521-7.518,20.55-15.538,27.066A19.166,19.166,0,0,1,68.9,201.247c-17.543-5.764-18.545-31.577-33.833-41.6m81.2-4.01c-2.757-4.01-8.02-5.263-12.029-8.02-6.767-4.511-9.774-12.531-13.784-19.8-4.01-7.017-10.275-14.285-18.295-14.034-7.518.251-13.533,6.767-17.042,13.533s-5.764,14.285-11.027,19.8a31.2,31.2,0,0,0-4.762,5.263,5.28,5.28,0,0,0,.752,6.516c7.518,5.514,10.526,14.786,15.037,22.806s12.531,15.789,21.553,14.285c5.764-1,10.025-5.764,13.032-10.776s4.762-10.526,8.02-15.538a37.251,37.251,0,0,1,18.545-14.034Z" transform="translate(50.146 161.742)"/><path class="b" d="M171.8,154.9a51.367,51.367,0,0,0,26.816-24.56c3.258-6.265,5.012-13.533,9.774-18.545,6.767-7.268,18.8-8.772,27.066-3.509,13.784,8.772,14.285,30.826,28.319,39.346,2.256,1.5,2.506,4.762,1.5,7.268s-3.258,4.26-5.012,6.265c-7.268,8.02-10.776,19.047-17.042,28.069s-17.794,16.29-27.818,12.029c-9.022-3.759-12.28-14.786-17.042-23.558A51.632,51.632,0,0,0,171.8,154.9m7.769-.251a48.9,48.9,0,0,1,21.8,18.545c5.263,8.521,9.273,19.8,19.047,22.3,9.523,2.256,18.545-5.764,23.307-14.285,5.012-8.521,8.27-18.545,16.039-24.31a4.523,4.523,0,0,0,.752-5.514,22.531,22.531,0,0,0-4.01-4.511c-6.265-6.265-9.022-14.786-13.282-22.3s-12.28-14.285-20.8-12.781c-5.263,1-9.523,5.012-12.531,9.523s-5.012,9.523-7.769,14.034A51.35,51.35,0,0,1,179.569,154.646Z" transform="translate(258.755 158.221)"/><path class="b" d="M166.345,198.1c8.02,5.514,19.047,7.268,25.563,14.536a20.859,20.859,0,0,1,3.007,22.054c-7.268,14.786-29.322,15.789-39.346,28.821-2,2.506-5.764,2.506-8.521,1.253s-5.012-3.759-7.518-5.764c-7.017-5.764-16.039-8.771-23.808-13.533s-14.786-13.032-13.533-22.054c1-8.02,8.521-14.035,15.789-17.794s15.288-6.767,20.8-13.032c4.26-5.012,6.265-11.528,11.278-15.789,4.26,8.27,9.022,16.29,16.29,21.3m-17.292-14.786a45.162,45.162,0,0,1-19.8,22.806c-8.27,4.762-19.047,8.27-21.052,17.543-1.253,5.764,2,11.779,6.516,15.789s10.025,6.516,15.287,9.273a106.427,106.427,0,0,1,19.8,13.533,91.234,91.234,0,0,1,19.3-13.283c5.263-2.757,10.776-5.263,15.037-9.273,4.511-4.01,7.769-9.774,6.766-15.538-.752-5.012-4.511-9.022-8.771-11.779s-9.022-4.511-13.283-7.017A47.022,47.022,0,0,1,149.053,183.316Z" transform="translate(153.689 266.135)"/><path class="b" d="M135.932,114.722c-.5,10.275,1.5,20.55,3.759,30.575a83.617,83.617,0,0,0-30.575-2.757c-9.774,1-20.3,3.509-28.821-1.754S69.269,124.5,69.269,114.472s2-20.049-.251-29.823c-.752-3.007-1.5-7.268,1.253-8.771a6.358,6.358,0,0,1,3.007-.5c12.28-.251,24.811-.5,37.091-.752,3.258,0,6.516-.251,9.774.5A21.282,21.282,0,0,1,134.93,87.656c3.759,8.27,1.253,18.044,1,27.066m-42.6-35.086a100.45,100.45,0,0,1-21.3-1.5,192.208,192.208,0,0,1,2,29.322c0,5.263-.5,10.526.5,15.538,1,5.263,3.258,10.275,7.518,13.283,7.518,5.263,17.794,2.506,26.816,1.754a60.06,60.06,0,0,1,27.317,4.01,92.959,92.959,0,0,1-3.258-43.858c1.5-8.27-6.265-15.789-14.285-18.044C110.37,77.631,101.849,79.135,93.328,79.636Z" transform="translate(102.903 112.184)"/><path class="b" d="M149.089,143.374c7.769-6.015,18.8-5.012,28.821-4.01,10.025.752,21.553.251,27.568-7.518,4.762-6.265,4.26-14.786,4.01-22.3-.251-8.772,0-17.794.5-26.565.251-2.506,1.5-6.015,4.01-5.513a149.55,149.55,0,0,0-1,28.069c.251,5.764,1,11.779.251,17.543s-2.757,11.779-7.268,15.538c-4.511,4.01-10.526,5.263-16.541,5.514s-11.779-1-17.794-1.253a67.911,67.911,0,0,0-27.317,4.26c-1.754-6.516,1.253-13.533,1.754-20.3.752-7.268-1-14.536-1.754-21.8s-.5-15.037,4.01-21.052c4.26-6.015,12.029-8.771,19.548-9.523s14.786.5,22.3.5A85.127,85.127,0,0,0,211.241,72.2c1,.251,1.253,2,.5,2.757a5.716,5.716,0,0,1-3.007,1.5,107.167,107.167,0,0,1-26.816,2.757c-9.523-.251-20.55-1.5-27.568,5.012-6.015,5.514-6.516,15.037-5.764,23.057.752,8.27,2.757,16.541.251,24.56C148.337,135.605,146.081,140.367,149.089,143.374Z" transform="translate(216.558 108.593)"/><path class="b" d="M134.949,149.168a2.658,2.658,0,0,1,3.258,2.255,9.328,9.328,0,0,1-.5,4.511,62.558,62.558,0,0,0-2,24.56c1,9.022,3.759,19.047-.752,27.066-4.511,8.27-15.037,11.027-24.56,11.027s-19.047-2-28.069-.251c-2.506.5-5.263,1.253-7.769.752s-5.012-3.007-4.26-5.514c3.007-10.025.5-20.8-.251-31.327-.5-10.526,1.754-22.555,10.526-27.818s19.8-1.754,30.074-1.253a60.527,60.527,0,0,0,24.31-4.01m1.253,4.26a79.111,79.111,0,0,1-30.575,3.007c-7.268-.752-15.288-2.255-21.553,1.5-8.521,4.762-10.275,16.039-9.523,25.813s2.757,20.049-1,28.821c-.752,1.754,2.256,2.757,4.26,2.506a146.335,146.335,0,0,1,29.572-1.5c5.514.251,11.528,1,16.541-1.754,6.265-3.258,9.273-10.776,9.523-17.794s-1.253-14.034-1.754-21.052C130.688,166.209,131.691,158.691,136.2,153.428Z" transform="translate(105.391 224.348)"/><path class="b" d="M213.282,214.361c-5.764-8.27-4.26-19.3-3.509-29.573.752-10.025-.5-21.8-8.772-27.568-8.772-5.764-20.55-1.754-31.076-1a44.333,44.333,0,0,1-21.3-4.01c-2,2.506,0,5.764,1,8.771,3.258,7.769,1.5,16.541.752,24.811s0,18.044,6.265,23.307c6.767,5.764,16.541,4.511,25.312,4.01a112.435,112.435,0,0,1,30.324,2,3.314,3.314,0,0,1-3.007,3.509,11.653,11.653,0,0,1-5.012-.752c-9.273-2.255-18.8-.251-28.319.251s-20.049-1.253-25.813-9.022c-4.511-6.265-4.762-14.536-4.01-22.054s2.506-15.287.752-22.806c-1.253-5.263-4.01-10.526-2.506-15.538a75.819,75.819,0,0,0,29.071,3.007c5.764-.5,11.278-1.754,17.042-1.5,5.764,0,11.779,1.5,16.039,5.263,6.767,6.265,7.017,16.541,7.017,25.563C213.532,191.806,213.282,203.083,213.282,214.361Z" transform="translate(216.772 223.813)"/><path class="b" d="M209.809,77.406c-.5-8.521-3.509-17.292-9.273-23.558s-14.786-10.025-23.307-9.022c-5.764.752-11.528,4.01-14.034,9.273s-.752,12.531,4.26,15.287c4.26,2.256,9.523,1.253,14.536,2,8.02,1.253,14.536,7.769,16.541,15.287,2,7.769-.5,16.29-5.764,22.3a22.4,22.4,0,0,1-11.779,7.268c-4.511.752-9.774-.5-13.032-3.759-4.762-5.012-3.759-14.034,1.5-18.044,5.513-4.01,14.285-2.506,17.794,3.509-3.258,1.754-7.017-1.5-10.526-2-4.762-.5-8.771,5.012-7.518,9.774s6.516,7.518,11.528,7.017,9.022-4.01,11.528-8.27a20.755,20.755,0,0,0,2.256-16.791,18.406,18.406,0,0,0-11.528-12.029c-6.516-2-14.034,0-19.548-3.759-6.767-4.26-6.767-14.786-2.256-21.3,7.017-10.025,21.8-12.28,32.58-6.516s17.292,17.543,18.545,29.572C212.315,75.4,211.563,77.907,209.809,77.406Z" transform="translate(238.039 61.534)"/><path class="b" d="M186.752,179.751a22.054,22.054,0,0,1,11.779,22.806A22.374,22.374,0,0,1,179.986,220.6c-4.26.5-9.022,0-12.781,2.255-5.012,3.007-5.764,10.776-2.506,15.538s9.523,7.017,15.538,6.767c8.02-.251,15.538-4.511,20.55-10.526a42.339,42.339,0,0,0,9.022-21.8,30.8,30.8,0,0,1-28.57,36.088c-7.769.5-16.29-2.506-20.55-9.273-4.26-6.516-2.506-16.791,4.26-20.55,4.762-2.506,10.776-1.5,16.039-2.757a18.561,18.561,0,0,0,13.533-15.287,18.3,18.3,0,0,0-9.273-18.044c-5.514-3.007-14.285-1.754-16.039,4.26-1.5,5.012,3.509,10.776,8.772,9.774,2.757-.5,5.263-2.506,8.02-3.007a1.228,1.228,0,0,1-.251,2.255c-3.258,4.511-10.526,5.764-15.287,2.757s-6.516-10.025-4.01-15.037C170.212,177.5,179.735,176.242,186.752,179.751Z" transform="translate(238.54 267.696)"/><path class="b" d="M156.764,77.4c2.757,14.536-3.258,30.324-15.287,38.845-2.256,1.754-5.012,3.258-7.769,3.007-2.506,0-4.762-1.5-6.767-2.757A40.712,40.712,0,0,1,110.4,83.916c0-3.007,4.01-4.762,6.767-3.509,2.757,1,4.511,3.759,6.265,6.265,4.01,6.265,7.769,12.531,11.779,18.8A40.929,40.929,0,0,1,156.764,77.4M134.71,113.739,125.687,97.95c-1.253-2.256-3.258-4.762-5.513-4.01-2,4.762,1.253,10.025,4.26,14.285,3.007,4.01,7.268,8.772,12.029,7.268,3.007-.752,5.012-3.509,6.516-6.265,4.26-7.268,8.27-15.037,9.273-23.307a69.195,69.195,0,0,0-17.543,27.818M118.169,87.425c-.752.5-1.5,1.253-2.256,1.754l1.5,3.007c1.754,0,1.754-2.757,1-4.26Z" transform="translate(166.278 116.425)"/><path class="b" d="M99.275,139.806c-10.275-4.01-21.3-9.022-25.563-19.3-1-2,2.256-3.509,4.511-3.509A39.547,39.547,0,0,1,109.3,132.287c1.754,2.506,3.509,5.263,3.007,8.27a13.689,13.689,0,0,1-1.5,4.511C103.786,157.85,88,165.118,73.712,162.111c2-8.521,10.275-13.784,18.044-18.044a53.565,53.565,0,0,1,7.518-4.26M87.5,127.776a1.665,1.665,0,0,0,1,1.253,35.423,35.423,0,0,0,21.052,9.523A26.592,26.592,0,0,0,91,125.772c-1.5,0-3.759.5-3.509,2m8.27,25.061c2.506-1.5,4.762-2.757,7.268-4.26,2.757-1.5,6.015-3.759,6.265-7.017a28.806,28.806,0,0,0-21.052,11.027c.752,2.757,5.012,1.754,7.518.251M82.734,125.521c1,1,3.007-1,2-2a1.536,1.536,0,1,0-2,2m.752,30.074c-.5.5.5,1.5,1,.752S83.987,155.093,83.486,155.595Z" transform="translate(110.74 176.068)"/><path class="b" d="M156.273,149.059c-2.506-2.757-4.511-6.265-4.26-9.774a13.38,13.38,0,0,1,3.759-7.769A43.5,43.5,0,0,1,185.6,115.728c2.255-.251,5.513.5,5.764,2.757a4.836,4.836,0,0,1-.752,2.506c-5.263,9.523-15.538,14.536-25.312,19.3a54.625,54.625,0,0,1,25.061,16.29c1.5,1.754,2.757,4.511,1,6.015-.752.752-1.754.752-3.007.752a44.969,44.969,0,0,1-32.079-14.285m18.295,4.762c2.255.5,4.762,1.253,5.263,3.509,1,0,2.256.251,3.258.251.251-1,.5-2,.752-3.258-9.022-5.012-17.794-10.025-26.816-15.037q12.03-6.015,23.307-12.781c2.256-1.253,4.762-3.258,4.26-5.764h-5.764c-5.263,7.518-19.047,6.015-22.555,14.285-2,4.511.5,10.275,4.26,13.283C164.543,151.566,169.556,152.819,174.568,153.821Z" transform="translate(228.921 174.082)"/><path class="b" d="M133.479,157.146c3.509-.5,7.017,1.5,9.774,4.01a41.5,41.5,0,0,1,14.536,29.322c0,1.253,0,3.007-1,3.759-1.754,1.754-4.762.5-6.767-1.253a46.061,46.061,0,0,1-14.536-21.8c-1.5-.752-2.757,1.253-3.509,2.757-3.759,9.523-9.774,19.548-19.548,22.3-3.007-14.034,3.759-29.572,16.039-37.091a17.5,17.5,0,0,1,5.012-2m11.278,12.531c-2.256-4.26-5.263-9.022-10.025-9.273-4.511-.251-8.27,3.759-10.526,7.769a39.7,39.7,0,0,0-4.511,12.531c2.256,2,5.263-1,6.767-3.759l7.518-14.285c4.762,7.268,9.273,14.786,14.034,22.054,1,1.754,3.509,3.759,5.012,2.256l-.752-3.759q-4.135-6.767-7.518-13.533m-27.818,15.538c-.752.752.251,2.506,1.253,2.256,1.5-.752-.251-3.509-1.5-2.506Z" transform="translate(168.261 236.418)"/><path class="b" d="M196.884,128.372c-6.265,5.263-15.288,6.265-23.558,5.514s-16.29-2.757-24.56-2.506c-14.034.251-28.57,6.767-41.853,2a12.976,12.976,0,0,1-5.514-3.509c7.769-6.516,19.047-6.265,28.821-4.762,10.025,1.5,20.3,4.01,29.823.752a49.2,49.2,0,0,1,36.84,2.506m-13.533.5a26.65,26.65,0,0,0-16.541,0,26.647,26.647,0,0,0,16.541,0m-62.152.251c-1-.752-1.754,1.253-1,2,1.253.5,3.007-.5,3.759-1.754a5.21,5.21,0,0,0-2.757-.251Z" transform="translate(152.723 185.748)"/><path class="b" d="M211.183,50.1c-1.253,4.762-5.513,8.521-10.275,8.521s-9.273-5.012-8.02-9.523c-1.754-.752-4.01,1-4.511,2.757-.5,2,.251,4.01,1,5.764,2.255,4.762,5.764,8.772,8.27,13.283s4.511,9.774,3.007,14.786c-4.01-7.518-8.27-15.287-12.28-22.806a24.747,24.747,0,0,1-3.007-7.017c-1.253-6.265,2.757-13.032,8.771-14.786,2.506-.752,6.265.251,6.015,3.007-3.759,0-5.514,5.764-2.757,8.27s7.769,1.253,9.523-2c2-3.258,1-7.518-1.253-10.526-4.511-5.514-13.533-6.265-19.3-2s-8.02,12.28-6.265,19.047c2,8.27,8.772,14.786,11.027,23.057a23.2,23.2,0,0,1-7.017,23.307,7.269,7.269,0,0,1-1.253-6.767c5.012,0,7.518-6.767,6.516-11.779C187.625,74.414,179.1,66.645,176.6,56.62c-1.754-7.017,0-15.037,5.012-20.3s13.283-7.518,20.049-4.511C208.676,35.068,212.937,43.087,211.183,50.1Z" transform="translate(264.985 45.73)"/><path class="b" d="M175.808,236.87c.5-11.027,10.776-19.3,13.533-30.074,1.253-4.762-.5-11.278-5.263-11.278A8.825,8.825,0,0,1,182.825,188a18.865,18.865,0,0,1,9.022,18.545c-1.5,11.278-13.533,20.049-12.531,31.577.752,9.273,12.28,16.039,20.8,12.28a11.789,11.789,0,0,0,6.265-6.265c1-3.007.251-6.516-2.255-8.27-2.506-2-6.516-1.5-8.02,1-1.754,2.506,0,6.766,3.007,7.017,1.253,1.5-1.5,3.007-3.508,2.506-5.513-1-11.027-4.762-11.278-10.275,0-2.757,1.253-5.513,2.757-8.02,4.01-7.518,8.27-15.037,12.28-22.555a4.722,4.722,0,0,1,.5,2c1.754,9.273-7.769,16.29-11.779,24.811a6.485,6.485,0,0,0-.752,4.762c.5,1.5,2.256,2.757,3.759,2.005-.5-5.263,5.263-9.774,10.526-8.772s8.771,6.516,8.521,11.779-4.01,10.025-8.771,12.28a18.1,18.1,0,0,1-17.794-1.253A20.428,20.428,0,0,1,175.808,236.87Z" transform="translate(264.772 283.004)"/><path class="b" d="M167.1,129.106c-.251-.752-.251-1.754-.5-2.506a38.765,38.765,0,0,0,23.057-13.283c2.506-3.007,4.26-7.769,1.253-10.025a10.064,10.064,0,0,1-3.759-10.526C188.4,89.007,192.163,86,195.922,86A11.363,11.363,0,0,1,206.2,93.268c1.754,4.01,1.5,8.772,0,13.032-2.757,7.518-8.772,13.533-16.039,17.292-7.017,3.509-15.037,5.012-23.056,5.514m33.582-30.324c2.256-2.506.5-7.518-2.757-8.02s-6.767,3.258-5.514,6.516S198.679,101.538,200.684,98.781Z" transform="translate(250.923 129.378)"/><path class="b" d="M62.328,253.309a14.382,14.382,0,0,1-8.521-12.029c-.251-5.263,3.509-10.526,8.521-11.278s10.526,3.509,10.275,8.521c3.007,0,3.258-4.26,2-6.767-2-4.511-5.764-8.02-8.521-12.28s-4.511-9.523-2-14.034a62.194,62.194,0,0,0,5.012,11.027c2.506,4.01,5.514,7.769,7.268,12.029s2.256,9.774-.5,13.533-9.273,4.762-12.029.752c3.759.251,5.012-6.015,1.754-8.02s-7.769.752-8.521,4.26,1.5,7.268,4.511,9.523c7.268,5.012,18.8.752,21.052-7.769C85.635,229,72.6,218.975,70.849,206.695a19.351,19.351,0,0,1,8.02-18.295,9.072,9.072,0,0,1-.5,8.02c-1.5-2-4.26.5-4.762,2.757-3.258,13.533,13.032,24.309,13.533,38.344a17.408,17.408,0,0,1-8.02,15.037A18.781,18.781,0,0,1,62.328,253.309Z" transform="translate(81.023 283.607)"/><path class="b" d="M161.864,76.815a4.734,4.734,0,0,0-3.258,1.754,46.856,46.856,0,0,0-16.039,24.31A40.049,40.049,0,0,1,152.09,70.55a26.715,26.715,0,0,1,12.03-8.27c4.762-1.253,10.275-.752,14.034,2.506,3.759,3.007,5.513,9.022,3.258,13.283-2.256,4.511-8.521,6.516-12.531,3.509-2.255-1.754-4.01-5.012-7.017-4.762M177.9,73.557c.752-3.258-3.007-6.767-6.015-5.764-3.258,1-4.26,5.764-1.754,8.02,2.256,2.506,7.017,1,7.769-2.256M163.618,69.8a2.978,2.978,0,0,0-4.26,1,2.771,2.771,0,0,0,4.26-1Z" transform="translate(214.058 92.7)"/><path class="b" d="M188.706,174.706c1-1.754,3.007-3.007,3.759-5.012,1.754-3.759-.5-8.27-3.509-11.027-6.265-5.764-15.287-7.518-23.056-11.027a38.842,38.842,0,0,1,35.086,10.776c4.26,4.511,7.518,10.275,7.268,16.29s-5.012,12.28-11.278,12.531c-6.015.251-11.278-7.268-8.27-12.531m5.012,5.012c1.5,2.757,6.265,3.258,8.02.5s-.251-7.017-3.509-7.017C194.971,172.952,192.214,176.962,193.718,179.719Z" transform="translate(249.869 221.114)"/><path class="b" d="M97.294,80.649c-2.506,4.511-10.025,4.762-13.533.752s-2.757-10.526,1-14.285,9.523-4.762,14.786-3.509c5.012,1.253,9.523,4.762,12.781,8.772a41.622,41.622,0,0,1,9.523,32.079A61.09,61.09,0,0,0,109.824,82.9c-1.754-2-3.509-3.759-6.015-4.511-2.256-.5-5.263,0-6.516,2.256M94.537,76.89c2-2.506,0-7.017-3.258-7.268s-6.015,3.759-4.762,6.767,6.015,3.759,8.27,1.253m6.265-5.514a2.978,2.978,0,0,0,4.26,1c-.5-1-1-2-2-2.256a1.477,1.477,0,0,0-2.256,1.253Z" transform="translate(122.746 94.881)"/><path class="b" d="M213.131,93.349c6.265-.5,13.283,1.253,16.541,6.767,3.509,5.764,0,14.285-6.265,16.29-4.26,1.253-10.025-1.253-10.275-5.764,0-3.759-4.511-6.516-8.27-6.265s-7.268,2.506-10.526,4.511c-4.762,3.007-9.273,6.265-14.035,9.273,4.762-13.784,18.295-24.059,32.831-24.811m10.526,16.29c3.007-1.5,3.258-6.767.5-8.521-3.007-1.754-7.518.5-7.518,4.01-.251,3.258,4.01,6.015,7.017,4.511m-12.781-12.03c-1,.5,0,2.256,1,2,1-.5,0-2.506-1-2Z" transform="translate(271.558 140.323)"/><path class="b" d="M175.816,76.8c5.764,0,11.779.251,17.543.251,1.253,0,3.007.752,2.255,1.754-7.268,2.506-15.037,1-22.555,1s-16.039,2-19.8,8.521c-5.012,9.273,2,21.052-1.5,31.076-.5,1.754,2,2.757,3.759,3.007,6.265.251,12.781.5,19.047.752,4.01.251,8.27.251,11.779-1.5,7.268-3.759,8.27-13.533,8.27-21.8V82.063c2-.752,3.007,2.506,3.007,4.762-.5,6.516.5,12.781.251,19.3s-2.256,13.283-7.017,17.292c-5.263,4.26-12.531,4.511-19.047,3.759s-13.283-2.506-20.049-1.754a140.461,140.461,0,0,1-3.509-27.066c-.251-4.26,0-8.771,2-12.531C154.764,77.552,166.292,76.8,175.816,76.8Z" transform="translate(223.162 115.521)"/><path class="b" d="M62.745,113.917c-3.509-5.012-5.764-11.278-4.26-17.042,1.754-5.764,8.27-10.275,14.034-8.02,5.514,2.256,7.017,10.526,2.757,14.536-2.506,2.506-2.506,6.767-.752,10.025,1.754,3.007,4.762,5.263,8.02,7.017A80.793,80.793,0,0,0,99.585,128.2a37.341,37.341,0,0,1-36.84-14.285M73.271,99.883c1.253-3.258-2-7.268-5.514-6.516s-4.511,6.015-2,8.27c2.757.5,6.015.5,7.268-2Z" transform="translate(87.373 132.787)"/><path class="b" d="M111.96,96.374A37.962,37.962,0,0,1,88.9,65.3c-.5-5.012,0-10.275,2.757-14.285s8.02-6.767,12.781-5.263a10.109,10.109,0,0,1,6.767,8.02,9.492,9.492,0,0,1-5.012,9.273c-1.754,1-3.759,1.253-5.263,2.757-2.757,2.506-2.255,6.767-1,10.275a36.065,36.065,0,0,0,12.531,17.292,3.886,3.886,0,0,1-.5,3.007M97.174,59.283a5.129,5.129,0,0,0,7.518-2.506c1-2.757-1.253-6.516-4.511-6.516a9.624,9.624,0,0,0-5.764,5.514,18.922,18.922,0,0,1,2.757,3.509m-2.506,5.764c-.251-.752-.251-1.754-.5-2.506-1,.5-1,2.506.251,2.757Z" transform="translate(133.642 68.129)"/><path class="b" d="M192.5,198.328c1.754.251,3.759,1.253,3.508,2.757-7.268.251-14.536.752-21.8,1-7.769.5-17.042.251-22.054-5.764-4.26-5.263-3.759-12.781-3.258-19.548.752-7.017,1.5-13.784,2-20.8,6.767-.752,13.533-1.754,20.3-2.506,5.513-.752,11.528-1.253,16.541,1.253,4.762,2.506,7.769,7.769,9.022,13.032s.752,10.776.251,16.29c-.251,4.511-.752,8.772-1,13.283-3.007-5.764-2.256-12.781-2-19.3s-.5-14.034-5.514-18.044c-4.511-3.509-11.027-3.258-16.791-3.007-6.015.5-11.779.752-17.794,1.253-.5,0-.752,0-1,.5-.251.251-.251.5-.251,1-.251,6.767-.5,13.533-1,20.55a23.332,23.332,0,0,0,.752,9.273c2.506,6.767,10.776,9.523,18.044,9.523C177.967,199.33,185.235,197.325,192.5,198.328Z" transform="translate(223.768 230.072)"/><path class="b" d="M58.994,111.694c0,5.514-6.767,9.273-11.779,7.017s-7.017-9.022-4.762-14.034a15.792,15.792,0,0,1,12.781-8.771c5.514-.752,10.776,1,15.789,3.509a47.74,47.74,0,0,1,19.8,18.8c-1.5,2-4.511,0-6.265-2a30.54,30.54,0,0,0-15.037-9.273c-4.511-1-10.776.251-10.526,4.762m-13.032-5.263c-1.253,3.007,2,7.017,5.263,6.265,3.258-.5,5.012-5.012,3.007-7.769S47.215,103.173,45.962,106.431Z" transform="translate(62.554 144.032)"/><path class="b" d="M209.371,157.931c3.007-1.754,3.258-6.265,5.263-9.022,3.509-4.762,12.28-2.757,14.536,2.757s-.752,12.28-6.015,15.287-11.528,3.007-17.543,1.5a39.846,39.846,0,0,1-21.8-14.536,20.459,20.459,0,0,1-3.509-6.516c2-1,4.511,1,6.015,2.506a30.863,30.863,0,0,0,16.791,8.521c2.256.5,4.511.752,6.265-.5m6.516-1.253c-.5,3.509,3.509,6.516,6.767,5.263s4.01-6.265,1.253-8.521c-2.757-2-7.518-.251-8.02,3.258m-5.764,6.516c-.752.5.251,2.005,1,1.5S210.624,162.693,210.123,163.194Z" transform="translate(271.558 220.095)"/><path class="b" d="M99.19,147.5c-1.5,3.509-5.764,4.26-9.273,5.513A28.508,28.508,0,0,0,72.625,169.3c4.511,3.258,8.02,9.022,5.764,14.034-2.506,5.514-11.027,5.764-15.287,1.5S58.59,173.564,60.846,167.8c2.757-7.017,9.022-12.531,15.789-15.789A62.4,62.4,0,0,1,99.19,147.5M66.61,182.085c2,2.256,6.516,1.253,7.518-1.754s-2.256-6.265-5.263-5.764C65.858,175.569,64.605,179.829,66.61,182.085Z" transform="translate(89.523 222.005)"/><path class="b" d="M142.2,95.222c-.251-1-.251-2-.5-3.007a34.937,34.937,0,0,0,11.528-16.541,14.283,14.283,0,0,0,.752-8.521,7.852,7.852,0,0,0-6.015-5.764c-5.514-.752-8.27-8.02-5.514-12.531,2.757-4.762,9.523-5.764,14.536-3.258,4.762,2.506,7.769,8.02,8.02,13.283s-1.253,10.776-3.508,15.789c-3.759,8.772-10.275,16.791-19.3,20.55m12.781-46.364c-3.759-1.754-8.521,3.509-6.265,7.017,2.005,3.509,8.772,2.256,9.273-2a6.479,6.479,0,0,0-3.258-4.762m5.514,16.29c1.754-1.5,0-5.012-2.256-4.511-1.754,1.754,0,5.764,2.506,5.514Z" transform="translate(212.921 66.524)"/><path class="b" d="M86.995,192.4a8.7,8.7,0,0,1,11.779,2.256c1.5,2,4.511,2.506,6.767,1.754a15.12,15.12,0,0,0,5.764-4.762A67.421,67.421,0,0,0,122.081,171.6a37.3,37.3,0,0,1-10.526,32.58A23.844,23.844,0,0,1,98.523,211.2a13.616,13.616,0,0,1-13.283-5.263c-2.757-4.26-2.256-10.526,1.754-13.533m9.774,8.771c.5-3.007-3.258-5.764-6.015-4.762s-3.509,5.764-1,7.769C92.257,205.934,96.518,204.18,96.769,201.172Z" transform="translate(125.777 258.303)"/><path class="b" d="M143.539,172a43.826,43.826,0,0,0,13.283,20.8c2.757,2.256,7.518,4.01,9.273,1a9.2,9.2,0,0,1,9.022-4.261,8.887,8.887,0,0,1,7.268,6.516c1.5,5.263-2.506,11.027-7.769,12.781s-11.027.251-15.789-2.255c-11.779-6.767-18.295-21.3-15.287-34.585m33.081,24.059c-2.506-2.255-7.017-1-7.769,2.256s2.757,6.516,6.015,5.764c3.007-1,4.261-5.764,1.754-8.02m-13.032,5.514a2.627,2.627,0,0,0-3.007-.251c.251,1.754,3.007,1.754,3.007.251Z" transform="translate(215.09 258.906)"/><path class="b" d="M68.037,169.12c-5.263,1.754-11.278,2.506-16.541.5s-9.273-7.518-8.771-13.032,7.017-10.275,12.029-8.02a9.217,9.217,0,0,1,5.012,7.017c.752,4.762,7.518,5.263,12.029,3.759a33.339,33.339,0,0,0,15.789-11.528c.5-.752,2-.251,2.256.752a3.588,3.588,0,0,1-.752,2.757c-4.26,8.27-12.029,14.536-21.052,17.794M49.743,155.085c-2.757,1.253-3.258,6.015-.5,7.769,2.506,1.754,6.767-.251,7.017-3.258C56.509,156.338,52.75,153.582,49.743,155.085Z" transform="translate(64.287 221.939)"/><path class="b" d="M107,215.475c5.514.5,8.27,8.27,5.012,12.781s-10.526,5.012-15.037,1.754-6.516-9.273-6.265-14.786,2.506-10.776,5.263-15.538C99.985,192.669,106,185.4,114.27,184.9c-2.757,3.509-5.263,7.017-8.02,10.526-2.506,3.258-5.012,6.767-5.514,11.027-.251,4.01,2.256,8.771,6.265,9.022M98.732,225.5c1.253,2.757,6.015,3.258,7.769.752s0-6.767-3.258-7.017C100.236,218.733,97.479,222.492,98.732,225.5Z" transform="translate(136.595 278.335)"/><path class="b" d="M128.167,103.865a8.465,8.465,0,0,0,5.012.251c1.5-.5,2.757-2.506,2-4.01,8.521,2,17.543,4.26,25.813,1.5,2.256-.752,4.511-2.506,3.759-4.762a48.507,48.507,0,0,0-18.8,3.007c2.506-4.261,7.268-6.516,12.029-7.268s9.523,0,14.285.752a2.721,2.721,0,0,1,2.256,1c1.253,1.253-.251,3.258-1.5,4.511a32.643,32.643,0,0,1-22.806,7.518c-4.762-.251-9.523-1.754-14.034-.5a35.34,35.34,0,0,1-26.565-3.759c-1.5-1-3.258-2.506-3.007-4.26s1.754-2.757,3.509-3.258a23.376,23.376,0,0,1,25.563,6.015c-6.265-2.256-14.285-4.26-19.047.5C120.148,101.86,124.157,102.862,128.167,103.865Z" transform="translate(160.54 138.83)"/><path class="b" d="M134.867,156.033a48.454,48.454,0,0,0-14.536,2,5.038,5.038,0,0,0-2,1c-.752,1,.251,2.506,1.253,3.007a6.406,6.406,0,0,0,3.759,0c3.759-.752,7.518-1.5,11.528-2.256-2.757,4.01-7.769,6.265-12.531,6.767-5.012.5-9.774-.5-14.536-1.5-1.253-2.757,1.253-5.513,3.759-7.017a29.937,29.937,0,0,1,23.558-4.01c5.764,1.5,11.779-.752,17.794-1A28,28,0,0,1,175.717,163.3a30.539,30.539,0,0,1-27.568-.5c-1.253-.752-2.506-3.007-1-3.258a25.715,25.715,0,0,0,18.295,1.5c-3.007-3.007-7.518-4.26-11.779-4.762a34.808,34.808,0,0,0-18.8,3.759A10.765,10.765,0,0,1,134.867,156.033Z" transform="translate(161.861 230.264)"/><path class="b" d="M162.9,203.7a29.146,29.146,0,0,1,3.007,13.784,17.154,17.154,0,0,1-6.015,12.531c-3.759,2.757-9.523,3.258-13.283.251s-4.511-9.273-.752-12.531c2.757-2.506,7.268-2.757,9.273-5.764,1.5-2.506.752-5.764-.251-8.521A46.856,46.856,0,0,0,141.6,184.9c9.774.752,17.292,9.523,21.3,18.8m-10.776,15.288c-3.007,1.5-3.258,6.265-.5,8.27,2.757,1.754,7.017-.5,7.268-3.759s-3.759-6.015-6.767-4.511m7.769-5.263c0,1,2,1.253,2,0-.251-.5-.5-1-1.253-1-.5,0-1,.752-.5,1Z" transform="translate(213.27 278.335)"/><path class="b" d="M94.648,171.394c1.754-6.015,3.759-12.28,5.513-18.295A30.519,30.519,0,0,1,93.9,179.915H90.888a23.911,23.911,0,0,1-.752-21.8c2.506-5.012,6.767-10.025,4.762-15.037a15.513,15.513,0,0,0-2.757-4.26A25.558,25.558,0,0,1,89.886,112.5c3.007.5,5.012,3.007,6.516,5.514a31.486,31.486,0,0,1,3.759,22.3c-5.263-4.01-1.253-15.287-7.518-17.543a15.964,15.964,0,0,0,6.015,19.047v9.273C92.392,155.355,90.638,165.129,94.648,171.394Z" transform="translate(131.407 169.29)"/><path class="b" d="M56.621,97.122c2,4.511-3.509,9.523-8.27,8.27s-7.017-7.017-6.265-11.779,3.759-9.022,7.017-12.531,6.767-7.017,11.027-9.022,9.523-2.757,13.784-.752c-1.754,1.754-4.26,2-6.767,2.757C57.874,76.822,52.611,88.6,56.621,97.122m-5.764,4.26a18.066,18.066,0,0,0-1-12.03C45.594,92.11,46.346,99.378,50.857,101.383Z" transform="translate(63.173 105.474)"/><path class="b" d="M205.2,180.952c-.251-3.509-2-7.518-.251-10.776,1.754-3.509,7.268-4.26,10.526-2s4.511,6.767,3.759,10.776a21.851,21.851,0,0,1-5.764,10.526c-6.767,8.02-17.543,14.285-27.568,11.278,2.757-2.255,6.516-2.506,10.025-4.01,5.764-2.256,9.774-9.273,9.273-15.789m9.523-4.26a7.055,7.055,0,0,0-1.5-3.759c-1-1-2.757-1.253-3.509,0-.752.752-.5,2-.251,3.007.5,2.506,1,5.263,1.5,7.769a10.547,10.547,0,0,0,3.509-7.017Z" transform="translate(279.992 251.207)"/><path class="b" d="M95.357,60.5c-3.759,3.258-9.523.752-14.536,1-4.762.5-8.771,3.509-11.528,7.518a49.039,49.039,0,0,0-5.263,13.032c-2.506-12.28,3.759-25.813,14.536-32.329,4.26-2.506,9.523-4.01,14.034-1.754s6.516,9.273,2.757,12.531m-9.273-8.521c-3.007.5-6.516,2-7.268,5.012H91.849c1.5-1,1-3.509-.5-4.511S88.09,51.724,86.085,51.974Z" transform="translate(95.611 70.426)"/><path class="b" d="M153.109,108.818c-.251-3.759-.752-7.769-1-11.528s-.5-7.769,1.253-11.027C155.866,82,161.379,80.5,166.392,80c6.767-.752,15.287,1,16.791,7.518,1.5,6.265,2.757,13.032-.5,18.545-2.506,4.01-7.268,6.265-12.03,6.767s-9.523-.251-14.034-1a6.432,6.432,0,0,1-3.007-1.253,3.622,3.622,0,0,1-.5-1.754m17.543.251a12.761,12.761,0,0,0,5.263-1.5c5.764-3.258,5.514-11.528,4.511-18.044-.752-4.511-6.767-5.764-11.278-5.764-4.762,0-10.776.752-12.531,5.012a11.7,11.7,0,0,0-.752,4.26,86.01,86.01,0,0,0,.752,16.039A52.621,52.621,0,0,0,170.652,109.069Z" transform="translate(228.827 120.093)"/><path class="b" d="M217.114,82.789c2,3.509,3.258,7.769,2.506,11.779s-4.261,7.769-8.27,8.02-8.02-4.26-6.516-8.02a17.836,17.836,0,0,0-2.506-17.292,18.917,18.917,0,0,0-16.039-7.017C185.035,68.5,187.792,67,190.048,67a31.491,31.491,0,0,1,27.066,15.789m-8.02,11.528c-.752,2.256,2,4.26,4.01,3.759,2.255-.752,3.258-3.007,3.258-5.514,0-2.256-1.253-4.26-2.256-6.265s-2.256-4.26-4.511-5.012A21.026,21.026,0,0,1,209.094,94.317Z" transform="translate(280.105 100.761)"/><path class="b" d="M198.07,78.041c-2.757-2-3.007-5.513-4.26-8.771-2.757-7.518-11.528-12.029-19.047-10.275-2.256.5-4.511,1.5-6.767,1.253-3.759-.5-6.265-5.263-5.263-9.022s5.012-6.265,8.771-6.767c4.01-.5,7.769,1,11.278,3.007,10.275,6.265,16.541,18.8,15.288,30.575M175.013,48.969c-2.255-.5-4.511-.5-6.265,1s-2,4.511,0,5.514c1.253.752,3.007.251,4.26,0a32.443,32.443,0,0,1,12.03-.5A20.414,20.414,0,0,0,175.013,48.969Z" transform="translate(244.766 66.664)"/><path class="b" d="M194.434,190.86a5.01,5.01,0,0,1,3.258-.5A31.576,31.576,0,0,1,180.65,219.18c-4.26,2.256-9.774,3.258-13.784.752-4.26-2.506-5.513-9.523-1.5-12.029,3.258-2,7.518-.5,11.278,0,9.273,1,18.295-7.518,17.794-17.042M168.12,216.172a13.037,13.037,0,0,0,13.032-3.007c-2.757.752-5.263-1-8.02-1.5S166.616,213.666,168.12,216.172Z" transform="translate(245.394 286.409)"/><path class="b" d="M57.48,182.7c0,7.518,6.265,14.786,13.784,15.789,2.256.251,5.764,1.253,5.012,3.509a30.569,30.569,0,0,1-30.324-17.794c-1.754-3.759-2.506-8.27-.752-12.029s7.017-5.764,10.275-3.007c3.759,3.007,2,8.772,2,13.533m-4.26-8.521a2.321,2.321,0,0,0-3.509.752,7.211,7.211,0,0,0-.752,4.01,11.948,11.948,0,0,0,3.007,5.514A16.366,16.366,0,0,0,53.22,174.183Z" transform="translate(66.574 252.713)"/><path class="b" d="M119.058,145.824c.5-5.012,1.253-10.025,1.754-15.037.251-2,1.754-4.762,3.509-3.759,4.01,14.786,7.518,31.327-.251,44.359C117.554,165.372,118.055,154.846,119.058,145.824Z" transform="translate(178.422 190.851)"/><path class="b" d="M119.235,112.219c.251-2.506,2.255-6.015,4.511-4.762,7.518,12.781,4.01,28.821.251,43.106-2.506-.251-3.509-3.258-4.01-5.513A111.16,111.16,0,0,1,119.235,112.219Z" transform="translate(178.244 161.301)"/><path class="b" d="M181.144,185.179c-1.754,2.256-5.012,2.757-7.769,3.007-6.265.752-13.784,1.253-18.044-3.509-3.509-4.01-3.258-10.025-2.757-15.288l.752-7.518a7.317,7.317,0,0,1,.5-2.256,5.886,5.886,0,0,1,3.509-1.754c4.511-.752,9.022-1.754,13.784-1,4.511.5,9.273,2.757,11.528,6.767,2.506,4.511,1.754,10.275.752,15.538-.5,2.256-.752,4.511-2.256,6.015m-2.757-20.3c-3.007-3.509-8.27-4.01-13.032-4.26-4.01-.251-9.523.752-9.774,4.762-.251,3.759-.752,7.518.251,11.278s3.258,7.268,6.767,8.27c2.256.752,4.511.5,7.017.251a44.738,44.738,0,0,1,5.764-.5,4.376,4.376,0,0,0,3.007-1,4.948,4.948,0,0,0,1.5-3.007C181.144,175.155,182.146,168.89,178.387,164.88Z" transform="translate(229.362 235.702)"/><path class="b" d="M97.417,208.162c4.26,2.757,2.256,10.275-2.506,12.28s-10.275,0-14.285-3.007A35.087,35.087,0,0,1,66.09,194.629c-.251-1.253-.251-2.757.5-3.509.752-1,2.757-.5,2.757.752-.251,8.772,8.02,16.791,16.541,16.039,3.759-.251,8.27-2,11.528.251m-4.762,3.759H83.884a6.166,6.166,0,0,0,5.764,4.511,6.379,6.379,0,0,0,6.015-4.01,15,15,0,0,1-3.007-.5Z" transform="translate(99.315 286.901)"/><path class="b" d="M122.926,136.045c-4.01.251-8.27.251-11.528-2s-4.511-7.769-1.253-10.275c1.754-1.253,4.511-1.253,6.265-3.007,2-2,1.5-5.764,4.01-7.017,2.757-1.5,5.764,1.5,7.017,4.511,1.754,3.258,3.007,6.766,2.506,10.526-.752,3.509-3.509,7.017-7.017,7.268m2.256-10.275a2.8,2.8,0,0,0-2.506-3.509c-2,1.5-3.759,3.007-5.764,4.511-1.754,1.253-.5,4.26,1.5,5.012s4.26,0,6.265-.752l.752-5.263Z" transform="translate(163.025 170.556)"/><path class="b" d="M144.469,124.637a3.475,3.475,0,0,1,1.5,5.012,8.576,8.576,0,0,1-4.762,3.509,46.241,46.241,0,0,1-10.025,3.007c-3.509.5-6.767-2.757-7.518-6.516-.5-3.509.752-7.268,2-10.526.752-2,1.5-4.01,3.258-5.263s4.511-1,5.514,1a16.787,16.787,0,0,0,10.025,9.774m-5.012,5.514a24.254,24.254,0,0,0-9.774-9.022A18.056,18.056,0,0,0,128.43,131.4a13.082,13.082,0,0,0,11.027-1.253Z" transform="translate(186.091 170.186)"/><path class="b" d="M117.776,129.856c3.759-.752,8.27-1.253,11.027,1.5,2.506,2.757,2,7.268,1,10.776-.5,2.506-1.253,5.263-3.007,7.017-1.754,2-5.012,2.757-7.017,1.253-2.256-1.754-2-5.513-4.26-7.268-1.754-1.5-4.511-1.253-6.265-2.757-2-1.754-1.5-5.514.752-7.518a17.4,17.4,0,0,1,7.769-3.007m5.263,12.781a2.259,2.259,0,0,0,1.253-.251c3.258-1.754,3.258-7.017.251-9.022s-7.769.251-8.27,4.01c1.754,1.5,3.759,3.258,5.514,4.762A1.915,1.915,0,0,0,123.039,142.637Z" transform="translate(162.662 194.539)"/><path class="b" d="M155.212,140.923l2.256-18.044c-1.754-1.754-4.26,1.253-4.762,3.759-1,4.762-2.256,9.774-3.258,14.536-3.759-10.526.251-23.307,9.022-30.074C162.981,120.623,161.728,132.9,155.212,140.923Z" transform="translate(222.965 167.182)"/><path class="b" d="M124.4,141.537c-.752-3.258-1.253-7.268.752-9.774,3.007-3.759,9.022-2.757,13.533-1.253,2,.752,4.26,1.253,5.764,2.757s2.506,4.01,1.5,5.764a12.668,12.668,0,0,0-10.025,9.273c-.752,3.007-5.263,3.508-7.769,1.5-2.256-2-3.007-5.263-3.759-8.27m3.759-1.754a8.526,8.526,0,0,0,.251,2.506c1.253,1.754,4.01.752,5.514-.752a19.139,19.139,0,0,0,5.012-7.017,17.038,17.038,0,0,0-10.526-1.5C128.406,135.272,128.156,137.527,128.156,139.783Z" transform="translate(186.365 194.386)"/><path class="b" d="M154.086,153.163a33.11,33.11,0,0,1-5.514-25.563c5.263,5.012,1.253,16.541,8.02,19.548a15.8,15.8,0,0,0-.5-13.032c-1-2-2-5.263,0-6.015a26.228,26.228,0,0,1,3.509,25.312,3.2,3.2,0,0,1-1.253,1.754C156.843,156.17,155.089,154.666,154.086,153.163Z" transform="translate(222.837 192.033)"/><path class="b" d="M248.017,127.683a26.567,26.567,0,0,1-21.8,2.256,5.123,5.123,0,0,1-2.255-1.253,3.076,3.076,0,0,1-.5-3.258c7.518-4.762,17.794-4.762,25.061.251A1.122,1.122,0,0,1,248.017,127.683Z" transform="translate(336.165 183.429)"/><path class="b" d="M52.678,65.3c-3.509.5-7.518.752-10.275-1.5s-1.5-8.27,2-7.769c4.511.5,4.26-9.273,8.771-9.022,2.506.251,3.509,3.509,3.509,6.015.251,2.506.251,5.012.5,7.268a9.4,9.4,0,0,1-.251,2.757c-.752,1.5-2.506,2-4.26,2.256m1.5-9.022c-.251-.752-.251-1.754-.5-2.506-2,2.256-4.26,4.511-6.265,6.767,2.506,1.754,6.767-1,6.265-4.01Z" transform="translate(61.602 70.635)"/><path class="b" d="M196.76,214.713c-3.759-2.757-4.01-8.27-4.26-13.032,0-3.007,3.258-5.514,6.265-5.764s6.015,1.253,8.771,2.506a3.9,3.9,0,0,1,2.005,1.5,3.651,3.651,0,0,1-1.253,3.007c-3.759,4.01-7.769,8.02-11.528,11.779m4.01-10.776a1.966,1.966,0,0,0,1-3.007c-3.007-.5-6.015,3.258-4.511,6.015a3.735,3.735,0,0,0,3.007-3.007Z" transform="translate(289.933 294.886)"/><path class="b" d="M44.911,199.193a5.241,5.241,0,0,1,3.258-1.754c2.506-.752,5.263-1.5,7.769-.752s5.012,3.258,4.511,5.764c-.5,2,0,3.759-.251,5.764a5.975,5.975,0,0,1-2.256,5.012c-1.754,1-4.511,0-4.511-2,0-2.757-3.007-4.26-5.514-5.764s-4.511-4.01-3.007-6.265M56.189,201.7a4.306,4.306,0,0,0-4.26,0,6.4,6.4,0,0,0,3.759,3.007,15.005,15.005,0,0,0,.5-3.007Z" transform="translate(66.863 295.619)"/><path class="b" d="M193.769,59.546c-1-1.5-.752-3.258-.752-5.012a47.846,47.846,0,0,1,1.5-8.27,4.648,4.648,0,0,1,1.754-3.007c2.256-1.5,5.012,1.253,6.015,4.01,1,2.506,2.757,5.764,5.513,5.263s4.26,3.759,2.506,6.015c-1.5,2.256-4.511,2.757-7.268,3.258-3.258.5-7.518.752-9.273-2.256m3.759-5.514c.251,1.253.251,2.506.5,3.509,2.757.251,5.514.5,7.769-1-2.255-3.007-4.762-6.015-7.017-8.771a8.022,8.022,0,0,0-1.253,6.265Z" transform="translate(290.669 64.358)"/><path class="b" d="M122.3,37.463a20.364,20.364,0,0,1-3.007-22.054c.752-1.5,1.754-3.007,3.258-3.509A22.238,22.238,0,0,1,122.3,37.463Z" transform="translate(176.687 17.772)"/><path class="b" d="M34.954,130.006c-6.015,5.012-15.538,5.513-22.3,1.253-1-.5-1.754-1.754-1.253-2.506C18.162,122.989,29.189,123.741,34.954,130.006Z" transform="translate(16.924 187.873)"/><path class="b" d="M203.209,44.519A27.3,27.3,0,0,1,215.489,35c1.253-.5,3.258.251,2.506,1.253a22.925,22.925,0,0,1-15.037,16.29C200.452,51.035,201.706,47.025,203.209,44.519Z" transform="translate(303.533 52.318)"/><path class="b" d="M33.325,40.775c.5-1.253,2.506-1,3.759-.752A20.581,20.581,0,0,1,50.116,55.561c-3.509,1-7.518-.5-10.275-3.007s-4.511-6.015-6.015-9.273C33.325,42.529,32.824,41.527,33.325,40.775Z" transform="translate(49.879 59.822)"/><path class="b" d="M220.494,87.514A19.392,19.392,0,0,1,202.7,100.545C203.2,92.275,212.223,85.509,220.494,87.514Z" transform="translate(305.295 131.122)"/><path class="b" d="M122.567,226.081c.251-.251.5-.752,1-.752.752-.251,1.253.5,1.754,1.253,4.01,6.767,3.759,16.039-1,22.3C118.808,242.622,118.056,232.848,122.567,226.081Z" transform="translate(180.175 339.154)"/><path class="b" d="M201.251,205.265c1.754-2,5.012-1,7.017.752A22.859,22.859,0,0,1,216.79,219.8,21.054,21.054,0,0,1,202,211.28C201,209.526,200,207.02,201.251,205.265Z" transform="translate(302.233 307.341)"/><path class="b" d="M236.312,137.43c-1-1.754.251-4.26,2.256-5.012a7.244,7.244,0,0,1,6.015.752A15.021,15.021,0,0,1,252.1,144.2C245.835,145.449,239.319,142.693,236.312,137.43Z" transform="translate(355.388 198.744)"/><path class="b" d="M215.453,168.5a17.657,17.657,0,0,1-12.28-7.769c-.752-1-1.253-2.255-.752-3.258.752-1.754,2.757-1.754,4.511-1.5a17.836,17.836,0,0,1,11.779,9.022,4.646,4.646,0,0,1,.5,1.754C218.962,168.5,216.957,168.753,215.453,168.5Z" transform="translate(304.571 234.586)"/><path class="b" d="M162.287,34.94c2.255.752,1.754,4.01.752,6.265-2.256,5.012-5.764,11.027-11.278,10.776a15.7,15.7,0,0,1,7.518-16.29A4.52,4.52,0,0,1,162.287,34.94Z" transform="translate(228.171 52.374)"/><path class="b" d="M251.7,110.819c.752.752.251,2-.251,3.007a17.51,17.51,0,0,1-15.037,9.022c-.5-7.017,6.516-13.533,13.533-13.032C250.45,110.318,251.2,110.318,251.7,110.819Z" transform="translate(356.037 165.208)"/><path class="b" d="M34.827,90.362a4.978,4.978,0,0,1,2.757.251,18.966,18.966,0,0,1,12.029,12.28,17.293,17.293,0,0,1-14.536-4.762C32.822,95.876,31.82,91.365,34.827,90.362Z" transform="translate(49.63 135.792)"/><path class="b" d="M106.917,2.6a14.1,14.1,0,0,1,10.025,15.789C109.423,18.89,103.408,9.367,106.917,2.6Z" transform="translate(159.486 3.765)"/><path class="b" d="M2.1,115.549c2.256-2.757,6.516-2.256,9.523-.251a14.333,14.333,0,0,1,6.516,10.275C11.373,127.077,3.854,122.316,2.1,115.549Z" transform="translate(3.163 171.003)"/><path class="b" d="M50.632,204.162c2.506.752,1.5,4.511,0,6.516-3.007,4.511-7.769,9.523-13.032,7.769a18.16,18.16,0,0,1,10.275-14.035A5.417,5.417,0,0,1,50.632,204.162Z" transform="translate(56.631 307.191)"/><path class="b" d="M95.36,51.009c0,1,0,2-.752,2.506s-1.754,0-2.506-.251A18.5,18.5,0,0,1,83.08,41.986c-.5-1.754-.5-4.01,1-4.762,1.253-.5,2.506,0,3.759.5A17.322,17.322,0,0,1,95.36,51.009Z" transform="translate(124.679 55.603)"/><path class="b" d="M16.383,141.917c-3.258,2-6.265,3.759-9.523,5.764-1.754,1-3.759-.752-3.759-2.757s1.253-3.509,2.506-5.012c2.256-2.506,5.012-5.012,8.27-5.012C16.633,135.4,19.139,140.163,16.383,141.917Z" transform="translate(4.669 203.028)"/><path class="b" d="M49.112,162.11c-3.007,3.509-6.516,7.268-11.027,7.769-1,0-2.256,0-2.757-.752-1-1.253-.5-3.007.5-4.26A18.936,18.936,0,0,1,45.1,157.6c2-.752,5.263-.251,5.514,1.754C50.616,160.106,49.864,161.108,49.112,162.11Z" transform="translate(52.387 236.717)"/><path class="b" d="M139.3,2.1a15.3,15.3,0,0,1-10.526,16.29C125.768,11.373,131.783,2.1,139.3,2.1Z" transform="translate(192.763 3.012)"/><path class="b" d="M164.358,221.839a15.539,15.539,0,0,1-10.024-6.767,13.9,13.9,0,0,1-2.256-9.273A14.692,14.692,0,0,1,164.358,221.839Z" transform="translate(228.856 309.814)"/><path class="b" d="M130.552,237c6.516,1.253,11.278,8.02,10.526,14.536C134.061,252.288,127.545,243.516,130.552,237Z" transform="translate(195.497 356.805)"/><path class="b" d="M88.373,221.589c-2.506.251-3.258-3.509-2.506-5.764A14.758,14.758,0,0,1,97.4,205.8a16.787,16.787,0,0,1-6.767,14.786A4.5,4.5,0,0,1,88.373,221.589Z" transform="translate(128.909 309.814)"/><path class="b" d="M111.195,251.536c-3.007-.5-3.258-4.762-1.754-7.268A13.86,13.86,0,0,1,119.215,237a12.386,12.386,0,0,1-4.762,13.533C113.45,251.034,112.2,251.786,111.195,251.536Z" transform="translate(163.478 356.805)"/><path class="b" d="M216.63,151.2a4.729,4.729,0,0,1,1.5,4.762,7.525,7.525,0,0,1-9.022.251,5.586,5.586,0,0,1,.251-8.521c2.757-1.754,7.268.25,7.268,3.508Z" transform="translate(312.166 221.313)"/><path class="b" d="M216.779,102.815a4.445,4.445,0,0,1-5.263,4.511c-2.757-.5-4.26-3.509-3.759-6.015s3.258-4.511,6.015-4.511c3.007,0,6.015,3.509,4.26,6.015Z" transform="translate(312.769 145.644)"/><path class="b" d="M96.625,44.489a6.117,6.117,0,0,1-4.01-4.511,6.19,6.19,0,0,1,1.253-5.514c3.258-1.253,7.268.251,8.27,3.509S99.883,45.241,96.625,44.489Z" transform="translate(139.203 51.095)"/><path class="b" d="M148.091,32.617a5.581,5.581,0,0,1,4.762,4.762c.251,4.26-6.015,7.017-9.022,4.01S143.831,32.116,148.091,32.617Z" transform="translate(214.798 48.933)"/><path class="b" d="M30.6,104.875a10.985,10.985,0,0,1,1.754-4.762,10.5,10.5,0,0,1,7.769,1.5,14.191,14.191,0,0,1-1.5,9.022c-3.509,1-6.265-2.757-8.02-5.764Z" transform="translate(46.088 150.351)"/><path class="b" d="M38.506,149.241a4.507,4.507,0,0,1,2.256,1.5,4.9,4.9,0,0,1,.251,6.015c-2.256,3.007-7.769,2-8.771-1.5C30.988,152,35,147.988,38.506,149.241Z" transform="translate(48.206 224.274)"/><path class="b" d="M124.177,109.016c-3.258.752-6.767-2.757-6.015-6.015s5.514-4.762,8.02-2.757c3.007,2.506,1.5,8.02-2,8.771Z" transform="translate(177.814 149.468)"/><path class="b" d="M145.675,123.8a4.957,4.957,0,0,1,2.757-.5,2.846,2.846,0,0,1,2.005.752,5.148,5.148,0,0,1,1,7.769c-2,2.256-6.015,2-8.02-.5C141.916,129.315,142.919,125.3,145.675,123.8Z" transform="translate(214.959 185.557)"/><path class="b" d="M101.6,132.162a3.352,3.352,0,0,1-4.26,2,5.241,5.241,0,0,1-1.5-1,5.72,5.72,0,0,1-.752-7.268,5.09,5.09,0,0,1,7.017-.752c2,1.754,1.754,5.514-.752,6.767Z" transform="translate(141.75 186.72)"/><path class="b" d="M128.515,153.975c.752-3.509-3.258-6.767-6.516-5.764-3.258,1.253-4.26,6.265-1.754,8.521C123,158.987,127.763,157.233,128.515,153.975Z" transform="translate(178.989 222.798)"/><path class="b" d="M151.293,219.787a2.846,2.846,0,0,1-2,.752,5.22,5.22,0,0,1-5.514-3.007,5.492,5.492,0,0,1,1.754-6.015c2-1.5,5.513-1,6.767,1.253a5.348,5.348,0,0,1-1,7.017Z" transform="translate(216.108 317.129)"/><path class="b" d="M104.014,216.742c-.5,3.509-6.015,4.762-8.27,2s0-7.518,3.509-8.02,6.767,3.258,6.015,6.767Z" transform="translate(142.841 317.167)"/><path class="b" d="M178.16,103.875c-3.007,1.253-3.759,6.015-1.253,8.02s7.017.251,7.518-3.007C185.177,105.629,181.167,102.622,178.16,103.875Z" transform="translate(264.174 155.862)"/><path class="b" d="M146.3,69.543c-.752-3.258-5.513-4.511-7.769-2.256s-1.253,7.017,2,8.02C143.543,76.059,147.052,72.8,146.3,69.543Z" transform="translate(206.815 99.471)"/><path class="b" d="M184.122,148.226c1-3.007-2.255-6.516-5.513-5.764-3.007.752-4.511,5.263-2.256,7.518C178.859,152.486,183.37,151.233,184.122,148.226Z" transform="translate(263.977 214.262)"/><path class="b" d="M63.693,145.4c-1.754,2.506.251,6.767,3.258,7.017s5.764-3.509,4.511-6.516C69.959,143.147,65.448,142.645,63.693,145.4Z" transform="translate(94.946 216.084)"/><path class="b" d="M106.62,68.533a11.142,11.142,0,0,1,.251,5.764c-2.256,3.007-8.02,1.253-8.27-2.506,0-4.01,5.514-6.265,8.02-3.258Z" transform="translate(148.506 100.983)"/><path class="b" d="M142.759,179.707c-3.007-.251-5.514,3.759-4.26,6.516,1.5,2.757,6.015,3.007,7.518.5C148.022,183.967,145.766,179.957,142.759,179.707Z" transform="translate(208.101 270.496)"/><path class="b" d="M62.412,111.293c1,3.007,5.514,4.01,7.518,1.5,2-2.255.5-6.767-2.506-7.268C64.667,105.028,61.409,108.536,62.412,111.293Z" transform="translate(93.721 158.718)"/><path class="b" d="M109.08,185.263c-.752,3.258-5.513,4.511-7.769,2.255-2.256-2.506-.5-7.017,2.757-7.518a6.4,6.4,0,0,1,5.012,5.263Z" transform="translate(151.058 270.955)"/><path class="b" d="M29.194,90.5c-2-2.255-6.265-1.5-7.268,1.253s1.754,6.015,4.762,5.513C29.7,97.014,31.2,92.753,29.194,90.5Z" transform="translate(32.708 134.153)"/><path class="b" d="M211.107,79.859c-.251-3.007,3.509-5.513,6.265-4.26s3.007,5.764.5,7.518a4.452,4.452,0,0,1-6.767-3.258Z" transform="translate(317.94 113.214)"/><path class="b" d="M172.509,104.842c2.506-.5,5.514,1.754,5.514,4.26,0,3.007-4.01,5.263-6.516,3.509s-1.754-6.516,1.253-7.268Z" transform="translate(256.041 157.651)"/><path class="b" d="M224.121,159.77c2.256,2.256.752,6.767-2.506,7.268-3.007.5-5.764-3.509-4.26-6.265a4.854,4.854,0,0,1,6.767-1Z" transform="translate(326.729 239.058)"/><path class="b" d="M137.9,72.753c-2.255,2-1.5,6.265,1.253,7.268s6.015-1.754,5.513-4.762C144.163,72.5,140.153,71,137.9,72.753Z" transform="translate(205.695 108.291)"/><path class="b" d="M79.135,34.606a4.1,4.1,0,0,1-2.506,5.764c-2.255.5-5.012-1.5-5.012-3.759a4.088,4.088,0,0,1,3.007-4.26,3.369,3.369,0,0,1,4.511,2.256Z" transform="translate(107.823 48.197)"/><path class="b" d="M210.408,173.159a4.246,4.246,0,0,0,6.516,3.007c2.506-1.754,2-6.015-.5-7.268A4.45,4.45,0,0,0,210.408,173.159Z" transform="translate(316.885 253.737)"/><path class="b" d="M176.8,142.653c-2.256-2-6.265-.5-6.767,2.256s2.757,5.764,5.513,4.762S179.053,144.408,176.8,142.653Z" transform="translate(256.013 213.319)"/><path class="b" d="M156.508,30.826c2.506,1.253,6.265-1,6.015-3.759,0-2.757-3.759-4.762-6.265-3.258S154,29.573,156.508,30.826Z" transform="translate(232.696 34.934)"/><path class="b" d="M165.109,31.357c-1.5,2.506.5,6.265,3.258,6.265,3.007,0,5.263-3.509,3.759-6.015S166.613,28.851,165.109,31.357Z" transform="translate(247.903 44.428)"/><path class="b" d="M34.654,80.441c2.506,2,.752,7.017-2.506,7.017-2.757.251-5.012-2.757-4.26-5.514,1-2.506,4.762-3.509,6.767-1.5Z" transform="translate(41.783 119.399)"/><path class="b" d="M224.844,92.2c1.754-2.256.251-6.265-2.506-6.767s-5.514,2.757-4.511,5.513A4.272,4.272,0,0,0,224.844,92.2Z" transform="translate(327.761 128.443)"/><path class="b" d="M30.613,171.908c-1.253,2.506,1,6.015,3.759,6.015,2.757-.251,4.762-4.01,3.258-6.265C36.127,169.151,31.866,169.4,30.613,171.908Z" transform="translate(45.573 255.74)"/><path class="b" d="M107.724,76.159c-.5-2.757-4.511-4.26-6.516-2.506-2.256,1.754-1.5,6.015,1,7.017C104.967,81.422,108.225,78.916,107.724,76.159Z" transform="translate(150.409 109.646)"/><path class="b" d="M73.633,107.22a3.87,3.87,0,0,1-3.759,6.767,4.041,4.041,0,0,1,4.01-7.017Z" transform="translate(102.298 160.285)"/><path class="b" d="M27.432,167.727c-1.5,1-3.509-.5-3.509-2.256-.251-1.754.752-3.258,1.754-4.762,2.256-1,5.263.251,5.764,2.506.752,2.256-1.5,5.012-3.759,4.762Z" transform="translate(35.973 241.375)"/><path class="b" d="M79.223,213.751a4.17,4.17,0,0,1,3.007,5.263,4.268,4.268,0,0,1-5.513,2.506c-3.007-2.255-1.253-8.02,2.506-8.02Z" transform="translate(113.249 321.411)"/><path class="b" d="M84.188,33.134c2.757.752,5.513-2.256,4.762-5.012s-4.762-3.509-6.516-1.754C80.429,28.372,81.431,32.382,84.188,33.134Z" transform="translate(122.569 38.141)"/><path class="b" d="M168.873,213.608a3.963,3.963,0,0,0-3.759,5.513c1.253,2.506,5.263,2.757,6.767.5C173.384,217.618,171.629,213.859,168.873,213.608Z" transform="translate(248.15 321.553)"/><path class="b" d="M138.5,181.291a4.006,4.006,0,0,0,6.516-1.754c.752-2.757-2.256-5.513-4.762-4.762S136.493,179.537,138.5,181.291Z" transform="translate(207.1 262.897)"/><path class="b" d="M155.548,221.366c1.5-2.256,5.764-1.754,6.767.752s-1.5,5.764-4.26,5.263a4.127,4.127,0,0,1-2.256-5.764Z" transform="translate(233.907 331.088)"/><path class="b" d="M75.784,147.728a4.069,4.069,0,0,1-4.511,2.506,3.924,3.924,0,0,1-2.506-4.511,3.736,3.736,0,0,1,4.511-2.757,3.624,3.624,0,0,1,2.256,4.762Z" transform="translate(103.405 215.011)"/><path class="b" d="M106.345,175.046a3.755,3.755,0,0,0-5.012,4.01c.251,2.506,3.759,4.01,6.015,2.506C109.1,179.807,108.6,176.048,106.345,175.046Z" transform="translate(152.539 263.128)"/><path class="b" d="M137.474,79.4c1-.752,2-1.253,3.007-2a4.318,4.318,0,0,1,3.258,4.511,3.924,3.924,0,0,1-5.012,2.506,3.405,3.405,0,0,1-1.253-5.012Z" transform="translate(206.118 116.425)"/><path class="b" d="M84.5,223.319c0,2.506,3.258,4.511,5.513,3.258a3.746,3.746,0,0,0,0-6.265C88.009,218.808,84.751,220.813,84.5,223.319Z" transform="translate(127.269 330.89)"/><path class="b" d="M164.959,66.718c-1,2.255,1,5.263,3.258,5.012a3.832,3.832,0,0,0,2.757-5.513C169.721,64.212,165.962,64.463,164.959,66.718Z" transform="translate(248.053 97.534)"/><path class="b" d="M165.218,109.625a3.464,3.464,0,0,1,2.757-4.511,3.7,3.7,0,0,1,4.01,3.509,3.535,3.535,0,0,1-2.757,3.509,3.756,3.756,0,0,1-4.01-2.506Z" transform="translate(248.546 158.131)"/><path class="b" d="M182.489,83c-1.253,1.5-4.01,1.5-5.012-.251-1.253-2.757,1.754-7.268,4.26-5.514A4.268,4.268,0,0,1,182.489,83Z" transform="translate(266.863 115.586)"/><path class="b" d="M106.773,83.814c-1,1.5-3.509,1.754-5.012.752a3.933,3.933,0,0,1-1.253-4.762c1.253-.5,2.256-1,3.509-1.5a4.624,4.624,0,0,1,2.757,5.514Z" transform="translate(150.859 117.78)"/><path class="b" d="M74,73.042a3.42,3.42,0,0,1,1.253-6.015c2.506-.5,4.762,3.258,3.258,5.263-.752,1.253-3.007,1.5-4.511.752Z" transform="translate(109.452 100.734)"/><path class="b" d="M74.747,148.488c-1.253-1.253-1.253-3.759.251-4.762a3.29,3.29,0,0,1,4.762.752c1.5,2.757-2.757,6.516-5.263,4.511Z" transform="translate(111.209 215.253)"/><path class="b" d="M169.127,142.4c2.256,1,3.007,4.511,1,6.015h-4.01c-1.754-2.256,0-6.516,3.007-6.516Z" transform="translate(249.148 213.571)"/><path class="b" d="M76.107,113.5a4.609,4.609,0,0,1-3.007-4.26,3.342,3.342,0,0,1,4.762-2,3.429,3.429,0,0,1,1,5.012,9.265,9.265,0,0,1-2.757,1.253Z" transform="translate(110.099 160.77)"/><path class="b" d="M179.484,169.242c-2.256.5-3.258,3.759-1.754,5.263,1.5,1.754,4.762,1,5.514-1.253A3.233,3.233,0,0,0,179.484,169.242Z" transform="translate(266.609 254.646)"/><path class="b" d="M103.206,170.372c2-1,5.012.752,4.762,3.258a3.623,3.623,0,0,1-5.263,2.506c-1.754-1.5-1.5-4.762.5-5.764Z" transform="translate(152.922 256.023)"/><path class="b" d="M171.365,183.873c-.5,1.253-1.253,2.255-1.754,3.509-1.754,1.253-4.511-.5-4.511-2.757s2.506-3.759,4.511-3.509c.5.752,1,1.754,1.5,2.506Z" transform="translate(248.664 272.595)"/><path class="b" d="M138.523,175.421c-1.754-2,0-5.764,2.757-5.514a3.152,3.152,0,0,1,2.256,4.511,3.887,3.887,0,0,1-5.012,1Z" transform="translate(207.576 255.736)"/><path class="b" d="M148.5,122.6c4.26,2.256,4.511,9.022.752,11.779C149,130.62,148.751,126.61,148.5,122.6Z" transform="translate(223.662 184.503)"/><path class="b" d="M63.925,86.068a3.586,3.586,0,0,1-2.506-4.511c.5-1.754,3.007-2.757,4.762-2a14.615,14.615,0,0,1,.5,5.764,5.713,5.713,0,0,1-2.757.752Z" transform="translate(92.207 119.285)"/><path class="b" d="M65.256,176.316A5.52,5.52,0,0,1,63,172.306a5.181,5.181,0,0,1,3.509-2.506c1.5.752,2.757,2.256,2.506,3.759a2.533,2.533,0,0,1-3.509,2.255Z" transform="translate(94.887 255.592)"/><path class="b" d="M79.164,110.523a3.079,3.079,0,0,1-.5-3.759,2.989,2.989,0,0,1,3.759-.5c2,2-1.253,6.015-3.509,4.511Z" transform="translate(117.819 159.238)"/><path class="b" d="M165.872,146.932a2.746,2.746,0,0,1-3.759,1.5,2.65,2.65,0,0,1-.752-4.01c1.253-1.754,5.012,0,4.511,2.506Z" transform="translate(242.128 216.308)"/><path class="b" d="M80.152,182.477a3.392,3.392,0,0,0-5.263,1.253c-.752,2,1.5,4.26,3.509,4.01C80.653,186.988,81.656,183.981,80.152,182.477Z" transform="translate(112.57 273.49)"/><path class="b" d="M165.06,107.809a2.745,2.745,0,0,1-2.757,2.506,3.759,3.759,0,0,1,0-6.015,3.307,3.307,0,0,1,2.757,3.509Z" transform="translate(242.188 156.94)"/><path class="b" d="M100.828,92.8a1.486,1.486,0,0,1-2.255-.752c-1.253-1.5.251-4.511,2.506-4.01,2,.5,2,4.26-.251,4.511Z" transform="translate(147.781 132.356)"/><path class="b" d="M143.23,86.81c1-1.5-.251-4.01-2-4.01s-3.258,2.256-2.506,3.759A2.821,2.821,0,0,0,143.23,86.81Z" transform="translate(208.632 124.558)"/><path class="b" d="M83.27,108.711c-2-1,.251-3.759,2.256-4.511l1.5,3.759a3.212,3.212,0,0,1-4.26,1.253Z" transform="translate(124.239 156.789)"/><path class="b" d="M99.538,85.3a3.019,3.019,0,0,1,3.509-1.5c1.5,1.754.251,5.012-2,5.263a3.937,3.937,0,0,1-1.5-3.759Z" transform="translate(149.824 125.819)"/><path class="b" d="M144.214,90.609a3.324,3.324,0,0,1-2.506,1.5c-2.255-1-1.5-5.012,1-5.012a3.412,3.412,0,0,1,1.5,3.509Z" transform="translate(211.408 131.034)"/><path class="b" d="M139.557,168.323a2,2,0,0,1,.5-2.506c1.253-1,3.007.251,3.258,1.754s-1,2.757-2.506,3.258a22.062,22.062,0,0,1-1.5-2.506Z" transform="translate(209.8 249.05)"/><path class="b" d="M156.651,107.662c-.251-1.754,0-4.01,1.5-4.762a5.182,5.182,0,0,1,2.506,3.509,2.6,2.6,0,0,1-4.01,1.253Z" transform="translate(235.811 154.831)"/><path class="b" d="M79.27,145.557a3.13,3.13,0,0,1,3.258-1,3.887,3.887,0,0,1-1,5.012c-1.5-.752-2.757-2.506-2.506-4.01Z" transform="translate(118.966 217.433)"/><path class="b" d="M103.01,161.7c0,1.253.251,2.506.251,3.759a2.732,2.732,0,0,1-4.26-2,3.019,3.019,0,0,1,3.509-1.5Z" transform="translate(149.108 243.393)"/><path class="b" d="M156.659,147c-.251-1.253,1.253-2,2.256-1.5a3.445,3.445,0,0,1,2,2.506,3.574,3.574,0,0,1-3.759,1.5,2.914,2.914,0,0,1-.5-2.506Z" transform="translate(235.803 218.748)"/><path class="b" d="M105.362,167.73c0-2.506-4.762-2.506-4.762,0S105.362,170.236,105.362,167.73Z" transform="translate(151.518 249.643)"/><path class="b" d="M141.959,93.148c-.251-2,3.007-1.754,4.01,0A2.993,2.993,0,0,1,142.46,95.9a3.86,3.86,0,0,1-.5-2.757Z" transform="translate(213.663 138.018)"/><path class="b" d="M83.3,147.8a15.122,15.122,0,0,0,2-2c2.256,1,1.253,5.263-1.253,5.263-.251-1-.5-2-.752-3.258Z" transform="translate(125.462 219.445)"/><path class="b" d="M145.366,157.159c0,1.253.251,2.506.251,3.759a3.48,3.48,0,0,1-2.757.5,6.571,6.571,0,0,1-.5-3.759,3.086,3.086,0,0,1,2.506-.5Z" transform="translate(214.265 236.405)"/><path class="b" d="M98.16,160.473c1.253,1.754,4.511-.5,3.258-2.256C100.416,156.714,96.907,158.719,98.16,160.473Z" transform="translate(147.441 237.352)"/><path class="b" d="M97.621,92.833c-1.754,1.5,1.253,4.762,2.757,3.258C102.132,94.587,99.375,91.329,97.621,92.833Z" transform="translate(146.227 139.086)"/><path class="b" d="M89.527,106.426a3.086,3.086,0,0,1-2.506-.5c-1-1.5,2-3.509,3.258-2,0,1-.251,1.754-.251,2.757Z" transform="translate(130.763 155.566)"/><path class="b" d="M154.557,146.808c1.253.752,1,3.258-.5,3.509-1.754-.251-1.253-3.759.5-3.509Z" transform="translate(230.386 220.943)"/><path class="b" d="M90.057,147.5c.251,1,.251,1.754.5,2.757a2.263,2.263,0,0,1-3.258-1,3.4,3.4,0,0,1,2.757-1.754Z" transform="translate(131.486 222.005)"/><path class="b" d="M144.736,162.657c-.5-2-4.511-1-4.01,1S145.237,164.662,144.736,162.657Z" transform="translate(211.888 243.188)"/><path class="b" d="M154.552,102.43c1,1-.251,3.007-1.5,2.506-1.5-.752.251-3.509,1.5-2.506Z" transform="translate(229.64 153.797)"/><path class="b" d="M138.842,40.5c6.516,3.759,13.032,7.518,19.8,11.027,4.01,2.256,8.02,4.511,10.526,8.27a14.689,14.689,0,0,1,1.5,13.283c-1.754,4.762-5.764,8.27-9.523,11.278-6.516,5.514-13.032,11.027-19.548,16.29.5-5.263,4.511-9.774,8.521-13.032S159.142,81.6,162.4,77.34c3.509-4.26,5.012-10.526,2.255-15.037-1.253-2.256-3.509-3.759-5.764-5.012-5.764-3.759-11.528-7.769-17.292-11.528-1-.5-2-1.253-3.007-1a2.537,2.537,0,0,0-1.754,1c-5.514,4.01-11.278,7.769-16.791,11.779-2.256,1.754-4.762,3.258-6.265,5.764a10.177,10.177,0,0,0-1,9.273,20.846,20.846,0,0,0,6.516,8.27l21.8,20.3a3.164,3.164,0,0,1-.251,3.007h-3.258a53.383,53.383,0,0,0-13.283-13.784c-7.268-5.263-17.042-10.526-17.794-19.548-.5-8.521,7.769-15.037,15.037-19.548C127.565,47.768,133.329,44.009,138.842,40.5Z" transform="translate(160.391 60.848)"/><path class="b" d="M178.8,143.82c8.771-2,13.784-11.027,18.545-18.545s12.531-15.287,21.3-13.283c6.265,1.5,10.275,7.518,13.784,13.032l8.27,13.533a8.546,8.546,0,0,1,1.754,4.762,7.205,7.205,0,0,1-1.754,4.511l-8.27,14.285c-3.759,6.516-8.771,13.784-16.29,14.285-5.012.5-9.774-2.255-13.283-6.015-3.509-3.509-6.015-8.02-9.022-12.029A63.8,63.8,0,0,0,178.8,143.82m33.582-26.314c-2,.752-3.509,2.506-5.012,4.01-7.268,7.769-14.786,15.287-22.054,23.057-.251.5-.752,1-.251,1.253A68.05,68.05,0,0,1,201.1,160.361c3.759,4.762,7.518,10.526,13.533,10.776,5.764.251,10.025-5.012,13.283-9.774,2.757-3.759,5.514-7.769,8.27-11.528,1.253-1.754,2.757-4.01,2.506-6.265a9.283,9.283,0,0,0-2-4.511c-2.757-4.01-5.263-7.769-8.02-11.779-2-2.757-3.759-5.764-6.516-7.769C219.4,117.255,215.64,116.253,212.382,117.506Z" transform="translate(269.298 168.044)"/><path class="b" d="M48.976,164.445c-3.007-4.511-5.764-9.022-8.771-13.533a9.677,9.677,0,0,1-2-5.012c0-1.754,1-3.509,1.754-5.012,2.757-4.762,5.514-9.273,8.27-14.034,3.509-6.015,8.02-12.531,14.786-13.032,6.516-.5,12.029,4.511,15.538,9.774,3.759,5.263,6.516,11.528,11.779,15.037,2,1.253,4.26,2.256,5.764,4.26s1.5,5.263-.752,6.265c-6.767,3.007-10.275,10.025-14.034,16.29s-9.523,12.531-16.791,12.28c-6.767-.752-11.528-7.268-15.538-13.283m43.356-17.794c.251-.251.5-.5.5-.752a1.378,1.378,0,0,0-.752-1.253c-6.265-6.516-12.531-13.032-18.8-19.8-2.256-2.506-5.012-5.012-8.27-5.514-5.764-.752-10.025,4.762-13.032,9.774-3.509,5.764-7.017,11.278-10.526,17.042l11.278,16.541c3.509,5.012,8.771,11.027,14.536,9.273,2.757-.752,4.762-3.007,6.516-5.012C80.053,160.185,86.067,153.418,92.333,146.651Z" transform="translate(57.535 171.228)"/><path class="b" d="M139.9,238.963a8.42,8.42,0,0,0,3.509-1.253c4.01-2.506,8.27-5.263,12.28-7.769,5.012-3.258,10.526-7.268,10.526-13.283,0-7.268-8.27-11.278-14.034-15.789A35.483,35.483,0,0,1,141.4,186.585c7.518,5.764,14.786,11.528,22.3,17.292,3.007,2.256,6.015,4.762,7.268,8.27,1.754,4.511,0,9.523-3.007,13.283s-7.268,6.015-11.278,8.521l-12.781,7.518c-2.256,1.5-5.514,2.757-7.518.752-5.263-5.263-12.531-7.518-18.8-11.779-6.015-4.01-11.278-11.779-8.27-18.546,1.253-2.757,3.509-4.762,6.015-6.767,7.518-6.516,15.287-13.032,22.806-19.548a3.373,3.373,0,0,1,3.007-1.253c1,.251,1.5,2,.5,2.256-7.268,6.767-14.786,13.533-22.054,20.55-2,1.754-4.01,3.759-4.762,6.265-1.5,3.759,0,8.27,2.506,11.278s6.265,5.263,9.523,7.268l10.526,6.015A3.828,3.828,0,0,0,139.9,238.963Z" transform="translate(163.344 277.402)"/><path class="b" d="M72.528,100.22c.251-5.513.251-11.027.5-16.29a4.2,4.2,0,0,1,.752-3.007c1-1.5,3.258-1.754,5.012-1.754,6.516-.251,13.283-.5,19.8-.752,3.509,0,7.017-.251,10.526.752a16.713,16.713,0,0,1,11.027,10.275c1.754,4.762,1.253,10.275.752,15.288-.752,6.265-1.253,12.28-2,18.545a4.646,4.646,0,0,1-.5,1.754c-.5,1-1.754,1.253-3.007,1.253-5.263.752-10.275,1.253-15.538,2-6.767.752-14.034,1.5-19.548-2.256-7.518-5.764-8.02-16.541-7.769-25.813m5.514-17.794a2.721,2.721,0,0,0-2.256,1,1.878,1.878,0,0,0-.251,1.253c0,9.022,0,17.794.251,26.816,0,8.02,9.022,13.032,17.042,13.283s15.789-2.256,23.808-1.754c.251-5.764.752-11.528,1-17.292.5-6.767.5-14.285-4.26-19.3s-12.781-5.012-19.8-4.762C88.317,81.925,83.054,82.176,78.042,82.427Z" transform="translate(109.167 117.914)"/><path class="b" d="M74.7,197.553l-.752-18.044c-.251-7.769-.251-16.791,5.764-22.054,5.263-4.511,13.032-4.01,20.049-3.258,5.263.5,10.526,1,15.789,1.754a3.423,3.423,0,0,1,2.757,1c.5.5.5,1.253.752,2,.752,4.26,1.253,8.27,2,12.531.752,5.263,1.754,10.526.752,15.789-.752,5.263-3.759,10.526-8.521,12.781-3.759,1.754-8.27,1.754-12.28,1.754l-22.555-.752a3.443,3.443,0,0,1-3.007-1c-.752-.5-.752-1.5-.752-2.506m2.256.251c7.268.251,14.285.5,21.553.752,5.764.251,12.28.251,16.039-4.01,3.759-4.01,3.759-10.275,3.258-15.789-.5-6.265-.752-12.781-1.253-19.047-4.762-.752-9.523-1.253-14.285-2-6.516-.752-13.784-1.5-19.047,2.506S76.453,171.489,76.7,178c0,6.516,1.5,13.283.251,19.8Z" transform="translate(111.257 231.348)"/><path class="b" d="M155.829,88.636a7.631,7.631,0,0,1,2.256-3.258,6.293,6.293,0,0,1,8.772,8.771,6.322,6.322,0,0,1-7.769,2A6.579,6.579,0,0,1,155.829,88.636Z" transform="translate(234.377 126.742)"/><path class="b" d="M161.935,171.815c-4.511-.251-6.767-7.017-3.509-10.025,2.757-2.506,8.02-1.253,9.273,2.255s-2,8.02-5.764,7.769m-1.754-3.258c1.5.752,3.007-1.754,1.754-2.757-1.5-.251-2.757,1.754-1.754,2.757Z" transform="translate(236.291 241.548)"/><path class="b" d="M139.913,72.436c-3.509,3.759-6.767,7.769-10.275,11.528-3.759-4.01-7.769-8.02-11.528-12.029-1.754-2-3.759-4.01-4.511-6.516-1.253-3.509,0-7.769,2.256-10.776s5.513-5.263,8.521-7.518a9.536,9.536,0,0,1,4.26-2c2.256-.251,4.26,1,6.015,2.256,5.263,3.759,11.278,8.772,10.526,15.037-.251,4.01-2.757,7.268-5.263,10.025m-8.521-22.3c-4.762-1.5-9.022,3.258-11.779,7.518-1,1.5-2.256,3.258-2.256,5.263,0,2.256,1.5,4.01,2.757,5.514a121.017,121.017,0,0,0,9.523,10.025c2.757-4.511,7.518-7.518,9.523-12.28C141.667,60.156,137.908,52.137,131.392,50.132Z" transform="translate(170.348 67.757)"/><path class="b" d="M68.3,146.334c-2.256,2.256-4.762,4.511-8.02,5.263-7.017,1.5-12.781-5.012-16.791-11.027-3.258-4.762,1-11.278,5.263-15.287,2.256-2.256,4.511-4.511,7.518-5.012,4.26-.752,7.769,2.255,11.027,5.012,4.01,3.509,7.769,7.017,11.779,10.526-3.509,3.509-7.017,7.017-10.776,10.526m-9.273-20.55c-6.015-.752-12.28,4.762-12.029,10.776s6.767,11.027,12.781,9.774c3.509-.752,6.516-3.509,9.273-6.015,1.5-1.5,3.007-2.757,4.511-4.26L69.806,132.3C66.8,129.292,63.29,126.285,59.03,125.784Z" transform="translate(63.771 180.817)"/><path class="b" d="M203.446,149.959c-3.007-.752-5.514-3.007-7.769-5.012-3.509-3.007-6.767-6.265-10.275-9.273a1.3,1.3,0,0,1-.5-1c0-.251.251-.5.5-.752,3.759-3.258,7.268-6.767,11.027-10.025,3.258-3.007,7.268-6.265,11.779-5.764,3.759.5,6.767,3.509,9.523,6.265,3.509,3.759,7.017,9.273,4.26,13.533-2.255,3.258-4.26,6.516-7.518,9.022s-7.268,4.01-11.027,3.007m10.025-24.811c-3.509-2.256-8.521-1.754-12.28.251s-6.516,5.263-9.523,8.521a1.914,1.914,0,0,0-.5,1.253c0,.5.5.752.752,1.253l6.015,5.263c2.005,1.754,4.26,3.759,7.017,4.01,2.506.5,5.263-.5,7.518-2C218.232,139.182,219.485,128.907,213.47,125.148Z" transform="translate(278.486 177.694)"/><path class="b" d="M142.386,201.78a18.632,18.632,0,0,1,3.258,5.263c1,3.509-.5,7.518-2.757,10.275a32,32,0,0,1-8.772,6.516,8.8,8.8,0,0,1-4.01,1.5,7.868,7.868,0,0,1-4.01-1.5c-6.015-3.759-12.781-9.523-11.027-16.541.752-3.007,3.007-5.263,5.263-7.518L130.608,189.5a110.437,110.437,0,0,1,11.779,12.28m-22.3,8.02c0,6.516,7.518,12.03,13.784,9.774a10.457,10.457,0,0,0,6.767-8.27,10.9,10.9,0,0,0-4.01-10.025,13.28,13.28,0,0,1-5.012-7.268c-.5.5-1.253,1-1.754,1.5C125.094,199.274,120.082,203.785,120.082,209.8Z" transform="translate(172.886 285.263)"/><path class="b" d="M105.151,111.834a2.846,2.846,0,0,1-2,.752c-4.511,1-8.771,2-13.283,1.5a16.2,16.2,0,0,1-11.779-5.764c-3.759-5.263-2.757-12.28-1.5-18.8.251-1.754.752-3.759,2.256-5.012,1.253-1.253,3.007-1.5,4.511-1.754,4.26-.752,8.521-1.754,12.781-1s8.521,3.258,10.025,7.268c1,2.506.752,5.012.752,7.769-.251,4.26-.5,8.27-.752,12.531a3.591,3.591,0,0,1-1,2.506m-22.806-4.26c5.514,4.762,14.034,1,21.3,2.506,0-4.511-.251-9.273-.251-13.784,0-2.256,0-4.511-1-6.265-2.757-5.263-10.275-5.012-16.039-4.26-1.754.251-3.509.5-4.762,1.754s-1.5,2.757-1.754,4.511C78.836,97.3,78.335,103.814,82.345,107.573Z" transform="translate(113.636 122.591)"/><path class="b" d="M126.295,50.573c2.506,2.506,1.754,7.769-1.5,9.022-3.258,1.5-7.769-1.754-7.268-5.263s5.764-5.514,8.27-2.757Z" transform="translate(176.949 75.586)"/><path class="b" d="M100.64,157.7c2,0,4.511.251,5.764,2a5.217,5.217,0,0,1,.752,3.258c.251,2.757.251,5.513.5,8.27.251,5.012.5,10.275-2.757,14.034-4.01,4.261-10.776,4.01-16.541,3.509-3.007-.251-6.265-.752-8.521-3.007-1.754-2-2.256-5.012-2.506-7.518-.752-6.767-1-15.037,5.012-18.545,3.007-1.754,6.767-1.754,10.025-1.754a29.85,29.85,0,0,1,8.27-.251m-1.253,3.007c-4.01-.251-8.27-.251-12.029,1s-7.268,4.511-7.518,8.771c-.251,2.757,1,5.513,1,8.27,0,4.762,6.015,6.265,10.776,6.265,3.759,0,8.02,0,10.526-2.757,2.255-2.506,2.255-6.265,2.255-9.523,0-2.757-.251-5.514-.251-8.27a3.724,3.724,0,0,0-.5-2.256C102.645,160.957,100.89,160.706,99.387,160.706Z" transform="translate(115.891 237.119)"/><path class="b" d="M197.512,133.637c-2.757,1-5.764-1.253-6.265-4.01s1.5-5.514,4.01-6.767a5.01,5.01,0,0,1,3.258-.5C201.021,125.868,201.522,132.133,197.512,133.637Z" transform="translate(287.928 183.992)"/><path class="b" d="M53,133.848a2.629,2.629,0,0,1-3.258,0c-2.506-1.5-3.509-5.263-1.5-7.518s6.015-2,7.518.5a4.923,4.923,0,0,1-3.007,7.017Z" transform="translate(71.051 187.79)"/><path class="b" d="M119.182,199.511A7.11,7.11,0,0,1,123.943,195a7.953,7.953,0,0,1,4.762,7.769c-2,1-4.01,2.256-6.265,1.754-2.256-.251-4.26-3.007-3.007-4.762Z" transform="translate(179.3 293.547)"/><path class="b" d="M81,165.214c.752-3.509,5.764-5.263,8.772-3.007a6.824,6.824,0,0,1,.752,9.774,5.571,5.571,0,0,1-3.258,2C83.756,172.482,80,169.224,81,165.214Z" transform="translate(121.748 242.636)"/><path class="b" d="M84.9,85.9a8.005,8.005,0,0,1,3.509.752,5.94,5.94,0,0,1,2.506,6.516c-1,4.01-7.268,5.513-10.025,2.256s-.251-9.273,4.01-9.523m2.256,4.26c-1.5-1-3.007,1.754-1.754,2.757,1.253.5,1.754-1.5,1.754-2.757Z" transform="translate(120.098 129.227)"/></g></svg>