<svg xmlns="http://www.w3.org/2000/svg" viewBox="0 0 73.827 94.566"><defs><style>.a{fill:none;}.b{fill:#5cb6e6;}</style></defs><g transform="translate(-54 -38)"><path class="a" d="M58.5,178.626a.519.519,0,0,0-.337-.168c-.294-.084-.463,0-.5.294a3.108,3.108,0,0,0,0,.883,1.173,1.173,0,0,0,.5.757.573.573,0,0,0,.757-.084,1.108,1.108,0,0,0,.252-.631.558.558,0,0,0-.126-.421A2.807,2.807,0,0,0,58.5,178.626Z" transform="translate(-3.152 -79.166)"/><path class="a" d="M117.74,212.8c-1.22,0-2.44,1.3-2.44,4.8,0,3.534,1.178,6.268,2.987,6.268,1.094,0,2.272-.757,2.272-4.922C120.558,214.987,119.507,212.8,117.74,212.8Z" transform="translate(-36.565 -99.08)"/><path class="a" d="M152.512,247.238c2.187,0,3.576-1.136,3.576-2.65a1.951,1.951,0,0,0-1.556-1.935,9.116,9.116,0,0,0-2.566-.252c-1.472,0-2.145.168-2.566.589a2.346,2.346,0,0,0-.8,1.556C148.6,246.06,150.03,247.238,152.512,247.238Z" transform="translate(-55.856 -116.228)"/><path class="a" d="M153.367,212.7c-.883,0-1.767,1.052-1.767,3.155,0,1.935.673,3.534,2.019,3.534,1.136,0,1.767-1.178,1.767-3.239C155.344,214.341,154.755,212.7,153.367,212.7Z" transform="translate(-57.594 -99.022)"/><path class="a" d="M88,145.839c-.925.968-1.809,1.935-2.818,2.818-.715.631-1.388,1.262-2.145,1.809-.841.631-1.641,1.262-2.482,1.851-.084.084-.21.126-.252.252a.345.345,0,0,0,.294-.042c1.346-.337,2.734-.589,4.123-.883a15.641,15.641,0,0,1,2.776-.337c.757-.042,1.514-.042,2.272-.084a3.547,3.547,0,0,0,2.692-.968c8.245-7.32,1.01-18.341.968-18.257C93.425,132.168,90.691,142.979,88,145.839Z" transform="translate(-16.288 -52.269)"/><path class="a" d="M185.374,152.376c-.841-.589-1.641-1.22-2.482-1.851-.757-.547-1.43-1.22-2.145-1.809-1.01-.883-1.893-1.851-2.818-2.818-2.692-2.861-5.385-13.672-5.427-13.8-.042-.084-7.278,10.937.968,18.257a3.654,3.654,0,0,0,2.692.968c.757,0,1.514.042,2.272.084a15.637,15.637,0,0,1,2.776.337c1.388.294,2.734.547,4.123.883a.346.346,0,0,0,.294.042C185.584,152.5,185.458,152.46,185.374,152.376Z" transform="translate(-67.979 -52.327)"/><path class="a" d="M227.91,180.292a1.079,1.079,0,0,0,.5-.757,2.085,2.085,0,0,0,0-.883c-.042-.294-.21-.379-.5-.294a.846.846,0,0,0-.337.168,3.631,3.631,0,0,0-.547.589.628.628,0,0,0-.126.421,1.66,1.66,0,0,0,.252.631A.538.538,0,0,0,227.91,180.292Z" transform="translate(-101.218 -79.108)"/><path class="b" d="M130.075,98.929a1.513,1.513,0,0,0-.5-.337c-.21-.084-.463-.168-.715-.252a.86.86,0,0,1-.379-.21.275.275,0,0,1,0-.463.916.916,0,0,1,.337-.21,9.237,9.237,0,0,0,1.052-.715.89.89,0,0,0,.379-.883c0-.168-.042-.294-.042-.463a5.777,5.777,0,0,1-.084-1.472,3.618,3.618,0,0,0-.042-.673,2.051,2.051,0,0,0-.168-.463.9.9,0,0,0-.883-.5,2.79,2.79,0,0,0-1.178.21,1.3,1.3,0,0,1-.547.126h-1.01a7.035,7.035,0,0,0-2.1.252,4.467,4.467,0,0,1-.8.168.852.852,0,0,1-.673-.252,4.842,4.842,0,0,1-.589-.715,6.271,6.271,0,0,0-.631-.841c0-.084-.084-.126-.126-.21-.631-.925-1.346-1.809-1.893-2.776-.421-.715-.841-1.472-1.22-2.187-.042-.042-.042-.126-.126-.168a13.05,13.05,0,0,0-1.641-2.44c-.252-.294-.5-.547-.757-.841a1.511,1.511,0,0,0-.294-.421c0-.168-.168-.294-.168-.421-.084-.21-.21-.463-.294-.673-.21-.5-.379-1.052-.547-1.6-.294-1.01-.5-2.019-.757-3.071-.252-1.01-.421-1.977-.631-2.987-.084-.421-.21-.841-.294-1.262a6.984,6.984,0,0,1-.126-.925,11.823,11.823,0,0,1-.042-1.22c.084-.883.042-1.767.042-2.692a6.421,6.421,0,0,0-.126-1.262,11.541,11.541,0,0,0-.379-1.641c-.042-.21-.126-.379-.168-.589-.252-.715-.5-1.472-.757-2.187a3.915,3.915,0,0,0-1.094-1.725,8.063,8.063,0,0,0-.925-.757c-.337-.21-.715-.337-1.052-.5a8.22,8.22,0,0,0-1.977-.589,1,1,0,0,1-.631-.379,2.158,2.158,0,0,0-.968-.631.7.7,0,0,0-.5,0,.459.459,0,0,1-.5-.084c-.5-.294-1.052-.631-1.556-.883-.463-.252-.925-.421-1.388-.673a7.989,7.989,0,0,1-1.43-.841,6.805,6.805,0,0,1-.8-.757,3.059,3.059,0,0,0-.337-.379c-.042-.168-.21-.294-.252-.5a3.65,3.65,0,0,1-.21-1.178,4.44,4.44,0,0,1,.084-1.052,3.184,3.184,0,0,0,.042-.631,1.237,1.237,0,0,1,.379-.925,1.18,1.18,0,0,0,.294-.8,10.377,10.377,0,0,0,.084-1.977.333.333,0,0,1,.21-.337,1.772,1.772,0,0,0,.673-.8c.084-.168.126-.337.21-.5a5.8,5.8,0,0,0,.337-1.22v-.168h0a.155.155,0,0,0,.042-.126,12.319,12.319,0,0,1,.294-1.725,1.884,1.884,0,0,0,0-.968l-.126-.5a1.242,1.242,0,0,1,.084-.547A3.149,3.149,0,0,0,100,37.848c-.042-.084-.042-.21-.126-.252,0-.042-.042-.042-.042-.084a2.222,2.222,0,0,0-.463-1.01,2.012,2.012,0,0,1-.421-.715,1.829,1.829,0,0,0-.168-.294.155.155,0,0,0-.126-.042c-.042-.126-.126-.126-.21-.168a2.747,2.747,0,0,1-.673-.547,1.513,1.513,0,0,0-.5-.337,4.245,4.245,0,0,1-.631-.294.155.155,0,0,0-.126-.042.92.92,0,0,1-.21-.126c-.126-.168-.294-.168-.463-.252a2.372,2.372,0,0,0-.5-.168,1.484,1.484,0,0,1-.547-.337.364.364,0,0,0-.252-.126,5.845,5.845,0,0,1-.8-.252c-.21.084-1.22.21-1.43.252a.36.36,0,0,0-.252.126,2.385,2.385,0,0,1-.547.337c-.168.042-.337.126-.5.168-.168.084-.337.084-.463.252-.084.042-.126.084-.21.126a.155.155,0,0,0-.126.042,4.246,4.246,0,0,1-.631.294,1.332,1.332,0,0,0-.5.337,4.247,4.247,0,0,1-.673.547.42.42,0,0,0-.21.168.155.155,0,0,0-.126.042.534.534,0,0,0-.168.294,1.258,1.258,0,0,1-.421.715A2.442,2.442,0,0,0,87,37.511c0,.042-.042.042-.042.084-.084.042-.084.168-.126.252a2.477,2.477,0,0,0-.168,1.641,2.462,2.462,0,0,1,.084.547,2.219,2.219,0,0,1-.126.5,1.886,1.886,0,0,0,0,.968,11.353,11.353,0,0,1,.294,1.725.155.155,0,0,0,.042.126h0v.168a5.8,5.8,0,0,0,.337,1.22,2.573,2.573,0,0,0,.21.5,1.772,1.772,0,0,0,.673.8.429.429,0,0,1,.21.337,15.545,15.545,0,0,0,.084,1.977,1.328,1.328,0,0,0,.294.8,1.419,1.419,0,0,1,.379.925,3.184,3.184,0,0,0,.042.631,8.856,8.856,0,0,1,.084,1.052,3.65,3.65,0,0,1-.21,1.178c-.042.168-.21.337-.252.5-.126.126-.21.252-.337.379a4.5,4.5,0,0,1-.8.757,9.8,9.8,0,0,1-1.43.841c-.463.21-.925.421-1.388.673-.547.294-1.052.589-1.556.883a.724.724,0,0,1-.5.084,1.026,1.026,0,0,0-.5,0,2.158,2.158,0,0,0-.968.631,1.22,1.22,0,0,1-.631.379,15.33,15.33,0,0,0-1.977.589,6.108,6.108,0,0,0-1.052.5,8.062,8.062,0,0,0-.925.757,3.578,3.578,0,0,0-1.094,1.725c-.252.715-.5,1.472-.757,2.187a2.412,2.412,0,0,0-.168.589,11.542,11.542,0,0,0-.379,1.641c-.042.421-.126.841-.126,1.262,0,.883-.042,1.767.042,2.692a11.821,11.821,0,0,1-.042,1.22,3.28,3.28,0,0,1-.126.925c-.084.421-.168.841-.294,1.262-.21,1.01-.421,1.977-.631,2.987-.252,1.01-.421,2.061-.757,3.071-.168.547-.337,1.094-.547,1.6-.084.21-.21.463-.294.673-.042.168-.168.252-.168.421a.962.962,0,0,0-.294.421c-.21.294-.5.547-.757.841a13.758,13.758,0,0,0-1.641,2.44c-.084.042-.084.126-.126.168-.421.715-.841,1.472-1.22,2.187A32.22,32.22,0,0,1,65.46,91.02c-.042.084-.126.126-.126.21-.21.252-.421.589-.631.841a4.843,4.843,0,0,1-.589.715.955.955,0,0,1-.673.252,2.716,2.716,0,0,1-.8-.168,5.9,5.9,0,0,0-2.1-.252h-1.01a1.164,1.164,0,0,1-.547-.126,2.911,2.911,0,0,0-1.178-.21.989.989,0,0,0-.883.5,1.507,1.507,0,0,0-.168.463,3.618,3.618,0,0,0-.042.673,8.646,8.646,0,0,1-.084,1.472,1.726,1.726,0,0,0-.042.463.89.89,0,0,0,.379.883,9.237,9.237,0,0,0,1.052.715.916.916,0,0,1,.337.21c.168.126.168.294,0,.463a.813.813,0,0,1-.379.21c-.252.084-.463.168-.715.252a1.76,1.76,0,0,0-.5.337.741.741,0,0,0-.252.547.367.367,0,0,0,.5.379c.168-.042.294-.084.421-.126A6.338,6.338,0,0,1,59.4,99.35c.252-.042.294.084.168.294,0,.042-.042.084-.084.126a4.761,4.761,0,0,1-.421.547.147.147,0,0,0-.084.042,1.193,1.193,0,0,0-.168.547.534.534,0,0,0,.042.252.4.4,0,0,0,.673.21,4.107,4.107,0,0,0,.757-.715.358.358,0,0,0,.126-.21,1.994,1.994,0,0,1,.421-.421c.126,0,.126-.084.21-.126.126-.084.21-.042.252.084v.337a3.543,3.543,0,0,0,.168,1.136c.084.21.421,2.734.631,3.071h62.638a19.015,19.015,0,0,0,.631-3.071,3.543,3.543,0,0,0,.168-1.136v-.337c0-.126.126-.168.252-.084.084.042.126.126.21.126a1.337,1.337,0,0,1,.421.421.358.358,0,0,0,.126.21,4.107,4.107,0,0,0,.757.715.411.411,0,0,0,.673-.21.533.533,0,0,0,.042-.252,2.721,2.721,0,0,0-.168-.547c0-.042-.042-.042-.084-.042a4.763,4.763,0,0,0-.421-.547c-.042-.042-.042-.084-.084-.126-.126-.21-.042-.294.168-.294a7.833,7.833,0,0,1,1.977.379.812.812,0,0,0,.421.126c.294.042.5-.084.5-.379A.74.74,0,0,0,130.075,98.929ZM58.225,95.9a.573.573,0,0,1-.757.084,1.079,1.079,0,0,1-.5-.757,2.085,2.085,0,0,1,0-.883c.042-.294.21-.379.5-.294a.846.846,0,0,1,.337.168,3.633,3.633,0,0,1,.547.589.628.628,0,0,1,.126.421A1.119,1.119,0,0,1,58.225,95.9Zm20.487-3.071a3.654,3.654,0,0,1-2.692.968c-.757,0-1.514.042-2.272.084a15.639,15.639,0,0,0-2.776.337c-1.388.294-2.734.547-4.123.883a.346.346,0,0,1-.294.042c.042-.126.168-.168.252-.252.841-.589,1.641-1.22,2.482-1.851.757-.547,1.43-1.22,2.145-1.809,1.01-.883,1.893-1.851,2.818-2.818,2.692-2.861,5.385-13.672,5.427-13.8C79.679,74.488,86.914,85.51,78.711,92.829ZM119.853,95.1c-1.346-.337-2.734-.589-4.123-.883a15.639,15.639,0,0,0-2.776-.337c-.757-.042-1.514-.042-2.272-.084a3.547,3.547,0,0,1-2.692-.968c-8.245-7.32-1.01-18.341-.968-18.257.042.126,2.776,10.937,5.427,13.8.925.968,1.809,1.935,2.818,2.818.715.631,1.388,1.262,2.145,1.809.841.631,1.641,1.262,2.482,1.851.084.084.21.126.252.252A.687.687,0,0,1,119.853,95.1Zm8.455-.294a6.984,6.984,0,0,1,.547-.589.519.519,0,0,1,.337-.168c.294-.084.463,0,.5.294a3.108,3.108,0,0,1,0,.883,1.173,1.173,0,0,1-.5.757.573.573,0,0,1-.757-.084,1.108,1.108,0,0,1-.252-.631A.756.756,0,0,1,128.308,94.806Z" transform="translate(-2.5 5.2)"/><path class="b" d="M79.618,211.868c1.43.21,1.809.589,1.514,1.514-.5,1.6-1.556,4.249-2.187,5.805l-2.23-6.016c-.294-.883-.126-1.094,1.136-1.3V210.9H70.7v.968a2.264,2.264,0,0,1,2.23,1.767c.5,1.22,2.356,5.132,3.828,9.255a1.658,1.658,0,0,1,.126,1.094,9.974,9.974,0,0,1-.715,1.6,5.876,5.876,0,0,1-2.4,2.061c-.589.379-.757.589-.757,1.052a2.184,2.184,0,0,0,2.272,1.851,1.015,1.015,0,0,0,1.052-.841c.547-1.641,1.094-3.534,3.029-8.161,1.641-4,2.482-6.142,3.2-7.614.715-1.556,1.01-1.851,2.356-2.019v-.968h-5.3Z" transform="translate(-10.727 -97.979)"/><path class="b" d="M112.4,210.1a6.751,6.751,0,0,0-6.9,6.773,6.733,6.733,0,1,0,13.461-.337A6.309,6.309,0,0,0,112.4,210.1Zm.21,12.2c-1.809,0-2.987-2.734-2.987-6.268s1.22-4.8,2.44-4.8c1.767,0,2.818,2.188,2.818,6.142C114.881,221.584,113.7,222.3,112.609,222.3Z" transform="translate(-30.887 -97.515)"/><path class="b" d="M142.079,231.919a2.484,2.484,0,0,0,.463,1.556,4.241,4.241,0,0,0,2.145,1.556c-.673.421-1.43.925-2.145,1.472a1.961,1.961,0,0,0-.841,1.556c0,1.556,1.683,3.407,5.427,3.407,3.828,0,7.74-2.608,7.74-5.931,0-2.987-2.65-3.449-4.417-3.449-.925,0-1.935.042-2.861.042-1.388,0-1.893-.631-1.893-1.094a1.642,1.642,0,0,1,.379-.841,8.3,8.3,0,0,1-1.094-.294A7.213,7.213,0,0,1,142.079,231.919Zm5.889,3.239a9.47,9.47,0,0,1,2.566.252,1.918,1.918,0,0,1,1.556,1.935c0,1.556-1.388,2.65-3.576,2.65-2.482,0-3.912-1.178-3.912-2.692a2.346,2.346,0,0,1,.8-1.556C145.823,235.327,146.5,235.158,147.968,235.158Z" transform="translate(-51.859 -108.986)"/><path class="b" d="M149.826,229.8c-.042.042-.084.126-.126.168a8.3,8.3,0,0,0,1.094.294l.126-.126Z" transform="translate(-56.494 -108.928)"/><path class="b" d="M155.872,210.647l-.126-.21a19.963,19.963,0,0,1-3.954.421,7.06,7.06,0,0,0-3.239-.757c-2.566,0-5.553,1.472-5.553,4.543a4.036,4.036,0,0,0,2.818,3.87c.042-.042.084-.126.126-.168l1.052.294-.126.126a8.479,8.479,0,0,0,1.514.126c2.818,0,5.427-1.472,5.427-4.333a3.576,3.576,0,0,0-.673-2.356c.421.042,1.22.126,1.683.126C155.326,212.119,155.7,211.194,155.872,210.647Zm-7.236,7.236c-1.346,0-2.019-1.6-2.019-3.534,0-2.1.883-3.155,1.767-3.155,1.388,0,1.977,1.641,1.977,3.449C150.362,216.7,149.731,217.882,148.637,217.882Z" transform="translate(-52.612 -97.515)"/><path class="b" d="M181.427,219.76V210a31.255,31.255,0,0,1-5.174,1.052v.925c1.346.168,1.472.294,1.472,2.187v5.595c0,2.019-.168,2.145-1.725,2.356v.968h7.193v-.968C181.511,221.9,181.427,221.737,181.427,219.76Z" transform="translate(-71.73 -97.458)"/><path class="b" d="M181.1,246.2a2.02,2.02,0,1,0-.042,4.038,2.066,2.066,0,0,0,2.1-2.019A2,2,0,0,0,181.1,246.2Z" transform="translate(-73.468 -118.429)"/><path class="b" d="M202.227,215.038c-1.472-.673-2.187-1.22-2.187-2.187a1.481,1.481,0,0,1,1.514-1.514c1.346,0,2.314.925,3.071,2.9l.925-.252c-.126-.757-.379-2.608-.463-3.365a14.53,14.53,0,0,0-3.113-.421c-3.029,0-4.88,1.767-4.88,4.038,0,2.356,1.851,3.365,3.7,4.291,1.767.841,2.187,1.514,2.187,2.4a1.443,1.443,0,0,1-1.641,1.472c-1.851,0-3.029-1.683-3.618-3.492l-.925.168c.084,1.01.337,2.987.463,3.618a9.3,9.3,0,0,0,3.618.841c2.482,0,5.216-1.388,5.216-4.249C206.1,217.015,204.54,216.047,202.227,215.038Z" transform="translate(-83.78 -97.573)"/></g></svg>