<svg xmlns="http://www.w3.org/2000/svg" viewBox="976.563 2117.839 742.098 554.031"><defs><style>.a{opacity:0.6;}.b{fill:#ccebcc;}</style></defs><g class="a" transform="translate(976.662 2117.945)"><path class="b" d="M1356.9,868.882h0c1.6.273,1.794-.546,1.794-1.482C1358.695,868.336,1358.538,869.155,1356.9,868.882Z" transform="translate(-827.627 -529.087)"/><path class="b" d="M729.514,448.791c-2.965-12.8-5.383-25.708-8.621-38.425-2.77-10.884-6.2-21.612-9.6-32.3a139.471,139.471,0,0,0-6.125-16.189c-3.9-8.426-8.582-16.5-12.366-24.967-8.153-18.218-15.916-36.592-23.8-54.888a6.564,6.564,0,0,1-.663-3.2c.351-4.1-1.638-6.9-4.6-9.363a17.237,17.237,0,0,1-3.433-3.706q-5.5-8.075-10.767-16.267a20.894,20.894,0,0,1-2.224-4.72c-1.014-2.965-1.872-5.969-2.692-8.972-1.911-6.866-4.8-13.459-5.579-20.637-.624-5.657-1.716-11.313-2.5-16.97a42.406,42.406,0,0,1-.585-7.373c.234-5.657.468-11.313,1.092-16.892,1.053-9.4,2.419-18.8,3.706-28.2.975-7.178,1.521-14.356.2-21.534-.273-1.4-.741-2.77-1.092-4.135-1.17-4.447-2.887-8.816-3.355-13.342-.9-8.7-4.8-15.8-10.065-22.392-4.135-5.188-8.192-10.455-12.639-15.331-3.277-3.589-6.671-7.334-10.767-9.753a170.1,170.1,0,0,1-36.826-29.258c-4.915-5.11-10.143-9.87-15.409-14.629C540,5.592,526.854,2.51,512.732,2.549c-10.416.039-20.793.351-31.208.273q-29.843-.234-59.647-.858c-8.816-.2-17.633-.7-26.449-1.17-3.043-.156-6.242-1.365-9.05-.7a104.7,104.7,0,0,0-15.6,5.227c-6.593,2.653-12.991,5.852-19.583,8.582-9.4,3.9-18.92,7.568-28.361,11.469-6.944,2.887-13.459,6.515-18.959,11.781a19.669,19.669,0,0,1-3.238,2.458,241.106,241.106,0,0,0-31.521,22.86c-10.3,8.777-20.6,17.555-29.843,27.424l-34.173,36.4c-6.671,7.1-13.771,13.849-19.271,21.963-8.933,13.186-20.051,24.538-30.428,36.475-6.71,7.724-13.225,15.565-17.009,25.24a7.957,7.957,0,0,1-1.4,2.341c-6.164,6.983-9.792,15.409-13.459,23.835-3.823,8.777-5.032,17.672-2.068,26.956a10.521,10.521,0,0,1,.429,4.8c-.936,5.227-2.185,10.416-1.795,15.838a2.922,2.922,0,0,1-1.716,3,2.466,2.466,0,0,0-.858,2.029c.663,6.008,1.482,11.976,2.224,17.945a6.224,6.224,0,0,1-.156,2.692c-2.224,6.593.039,12.991.78,19.427a2.2,2.2,0,0,0,1.17,1.56,37.379,37.379,0,0,0,5.071,1.365c2.653.546,2.653.624,2.419,3.277-1.4,14.083-2.848,28.166-4.174,42.287-1.248,13.342-2.185,26.683-3.667,39.986-1.17,10.65-2.965,21.222-4.408,31.833a5.713,5.713,0,0,1-3.745,4.759c-7.724,3.589-15.37,7.295-23.016,11.079a51.885,51.885,0,0,1-12.366,4.6c-4.369.936-8.7,2.341-13.225,1.053a5.269,5.269,0,0,0-1.755-.078c-2.146.078-3.043.819-2.926,2.965A16.332,16.332,0,0,0,60.8,478.01c.507,1.287.585,2.341-.507,3.355a9.128,9.128,0,0,0-1.053,1.521,48.47,48.47,0,0,0,5.969,1.678c5.93.78,11.82,1.677,17.867.9a5.481,5.481,0,0,1,3.355.624,8.81,8.81,0,0,0,6.554,1.131,15.03,15.03,0,0,1,2.3-.039c.078.234.2.468.273.7-1.873,1.638-3.667,3.394-5.657,4.915-13.81,10.689-29.18,18.647-45.135,25.63a30.789,30.789,0,0,0-6.4,3.238c-3.745,2.848-7.334,5.774-11.9,7.217-6.437,2.068-12.678,4.915-19.778,4.369-3.862-.273-5.032,1.4-4.252,5.188a14,14,0,0,0,.546,1.678,3.212,3.212,0,0,1-1.6,3.979,8.488,8.488,0,0,1-1.482.7,2.87,2.87,0,0,0,3.082,2.653,8.658,8.658,0,0,1,1.833.663c2.029.7,4.018,1.365,6.047,2.029,2.224.7,4.408,1.521,6.671,2.068a32.03,32.03,0,0,0,5.11.585c.741.039,1.521-.351,2.3-.351,5.071.117,10.143.312,15.175.39,5.305.078,10.65.156,15.955,0,10.845-.351,21.69-.936,32.535-1.248,6.827-.2,13.654.117,20.481-.117,7.412-.234,14.941.546,22.236-1.833a19.145,19.145,0,0,1,2.146-.156c4.408-.741,8.855-1.4,13.225-2.38a6.835,6.835,0,0,0,3.745-2.224,21.115,21.115,0,0,0,4.408-16.111c-.312-2.38-.585-4.759-.663-7.178-.156-3,.156-6.008-.2-8.972a74.518,74.518,0,0,1,.7-18.647,25.548,25.548,0,0,1,1.248-4.876,3.012,3.012,0,0,1,2.965-2.107c6.983-.312,14-.624,20.988-1.014,3.277-.2,5.227-1.717,5.852-4.993a47.612,47.612,0,0,0,1.053-10.221c-.2-5.813-.9-11.625-1.482-17.438-.975-9.128.429-18.1,2.38-26.878,1.716-7.841,4.525-15.448,7.1-23.055,4.993-14.746,10.065-29.531,17.2-43.458a114.219,114.219,0,0,0,5.422-12.717,123.748,123.748,0,0,0,7.685-41c.039-2.731.234-2.809,3-2.614,1.99.156,4.018.234,6.047.312,1.365.039,1.755-.7,1.677-1.99-.312-4.954-.9-9.831-3.823-14.083-1.053-1.56-.546-2.38,1.287-2.887.858-.234,2.107-.663,2.38-1.326.663-1.677,1.365-3.589,1.092-5.266-.7-4.213-.9-8.7-3.9-12.249a2.31,2.31,0,0,1-.2-3c1.833-2.965,3.472-6.086,5.422-9.011,4.33-6.515,6.2-13.966,8.543-21.222a5.738,5.738,0,0,1,1.677-2.653,33.935,33.935,0,0,0,8.114-8.075,8.252,8.252,0,0,1,2.419-1.834c2.107-1.4,4.291-2.653,6.32-4.174a65.4,65.4,0,0,0,5.266-4.6c2.731-2.5,5.93-4.564,6.983-8.582a4.471,4.471,0,0,1,4.837-3.433,6.239,6.239,0,0,0,5.93-3.394,7.587,7.587,0,0,1,3.043-2.575c2.5-1.326,4.369-3.082,5.032-5.852.351-1.365,1.17-1.755,2.5-1.872,2.848-.234,5.5-.975,6.593-4.174a1.572,1.572,0,0,1,.858-.936,33.064,33.064,0,0,0,6.866-3.394c2.887-1.794,5.93-3.706,9.558-4.018.741-.078,1.4-.7,2.146-.858,3.511-.819,7.022-1.677,10.572-2.263,2.536-.39,5.227-.039,7.724-.585a215.6,215.6,0,0,1,28.712-4.1,41.64,41.64,0,0,0,15.565-4.057,8.4,8.4,0,0,1,2.614-.741c6.359-.624,12.249-2.965,18.1-5.266,5.266-2.068,10.026-4.993,13.03-10.065,2.38-3.979,5.657-7.529,6.281-12.405a3.261,3.261,0,0,1,.624-1.209c2.263-3.706,4.564-7.412,6.749-11.2,1.131-1.951,2.458-4.018,2.731-6.164.273-2.185,1.092-2.848,3.043-3.316,3.16-.741,4.447-2.575,4.72-5.852a23.294,23.294,0,0,1,.429-2.38c.156-.039.351-.117.507-.156.546.819,1.092,1.638,1.677,2.419,1.4,1.951,2.926,2.068,4.291.234.858-1.17,1.716-.7,2.731-.312.975.39,2.185.936,3.082.7,1.638-.429,1.99.234,2.419,1.521.819,2.614,2.692,4.174,5.11,3.94,2.5-.234,3.94,1.56,5.852,2.536,1.17.585,2.263,1.716,3.433,1.755a12.1,12.1,0,0,1,7.8,3.55,4.21,4.21,0,0,1,1.248,2.263c.546,3,.507,3.043,3.472,3.316.585.078,1.17.117,1.716.234,1.638.39,3.784,2.341,3.745,3.784-.078,2.3.975,3.316,3.16,3.472,1.326.117,1.6.819,1.092,2.029a3.226,3.226,0,0,0,.819,3.94,8.581,8.581,0,0,0,4.174,1.6c1.638.156,2.536.663,2.731,2.3a14.142,14.142,0,0,0,.624,3.628,3.026,3.026,0,0,0,1.794,1.521,12.387,12.387,0,0,0,3.277.078c-.507.975-.741,1.521-1.053,2.029-.858,1.365-.585,1.99,1.014,2.185.39.039.78.039,1.17.039,2.848.078,3.394.741,2.848,3.589a8.441,8.441,0,0,1-.546,1.677,5.762,5.762,0,0,0,1.911,6.944,9.887,9.887,0,0,0,6.4,1.873c1.287,0,3,.039,3.823.819a26.055,26.055,0,0,1,4.993,6.359,99.853,99.853,0,0,1,4.564,10.962,7.626,7.626,0,0,1,.546,3.589c-.507,3.784-1.209,7.568-1.833,11.352a5.5,5.5,0,0,0,.975,4.564,41.632,41.632,0,0,0,11.2,9.87,21.283,21.283,0,0,1,2.341,1.716c4.564,4.018,9.128,8.114,13.693,12.132a6.856,6.856,0,0,0,1.638.663c-.2.312-.39.624-.585.975-1.248.507-2.5.975-3.745,1.482a33.178,33.178,0,0,0-3.16,1.482c-1.872,1.014-3.628,2.263-5.539,3.2-6.008,2.965-12.327,5.071-16.892,10.65-5.188,6.359-11.469,11.82-16.97,17.945-7.529,8.426-10.962,18.023-8.153,29.531a31.306,31.306,0,0,1,.741,13.732c-.624,3.121-1.17,3.589-4.33,3.121-4.954-.741-9.636-.351-13.615,3.043a36.989,36.989,0,0,0-3.082,3.472,5.045,5.045,0,0,1-.273,4.291c-.624,1.209-1.912,2.575-1.678,3.589.585,2.614-.975,4.291-1.873,6.281a6.294,6.294,0,0,0,.234,5.774,6.652,6.652,0,0,1,.624,2.731c0,1.677-.312,3.316-.351,4.993a23.057,23.057,0,0,0,.468,3.979,2.811,2.811,0,0,0,.78,1.17,3.458,3.458,0,0,0,.975.546,5.1,5.1,0,0,1-.741,1.053,11.62,11.62,0,0,1-7.178,2.887c-1.56.117-2.3.975-2.653,2.653,3.628.546,7.217,2.224,10.455-1.365.078.2.156.39.234.624-.468.975-.9,1.951-1.365,2.926a12.388,12.388,0,0,0,2.848-2.146c2.068-1.872,3.745-1.365,4.408,1.4a23.491,23.491,0,0,1,.351,2.731c2.028-1.912,4.135-1.912,6.242-1.482.507.858.936,1.6,1.365,2.38,1.951-1.56,2.185-1.56,3.823.2.507.507,1.053.975,1.6,1.443a3.734,3.734,0,0,0-.312-2.419c-1.014-1.873-.507-3.16,1.209-4.33,1.365-.9,2.5-2.146,3.862-3.121a2.659,2.659,0,0,1,1.833-.351,32.7,32.7,0,0,0,12.873-1.443,15.008,15.008,0,0,0,1.833-.741c-2.731-.351-5.7,1.092-7.88-2.185.624.039.936.078,1.365.078a15.6,15.6,0,0,0-.819-1.365c-1.4-1.716-1.209-3.16.468-4.681a6.2,6.2,0,0,0,1.248-1.951,13.1,13.1,0,0,1,.624-1.287h0c-.078-.546-.156-1.092-.234-1.6-1.092,1.99-2.185,3.9-3.277,5.813-2.3-3.9.9-5.774,2.107-8.426,1.755,1.131,1.716,2.614,1.4,4.213,1.6.273,1.794-.546,1.794-1.482v-.234c0-.234-.039-.468-.039-.7,0-1.053-.156-2.107,1.638-1.482-.234-.936-.39-1.677-.585-2.575a8.415,8.415,0,0,1,7.139,3.238,98.512,98.512,0,0,0,8.621,9.4,28.293,28.293,0,0,0,6.827,4.369c2.77,1.4,5.891,2.146,8.621,3.589,8.231,4.369,17.087,5.618,26.254,5.305,6.71-.2,12.405-2.341,16.7-7.841,1.17-1.521,3.082-2.5,4.759-3.55,3.2-2.068,6.515-3.979,9.753-5.969.468-.273.975-.546,1.755-.936.2,1.248.468,2.263.546,3.238a84.5,84.5,0,0,0,3.823,18.881c3.394,10.65,8.387,20.52,13.225,30.545a509.714,509.714,0,0,1,22.782,55.083,25.646,25.646,0,0,1,.819,5.54c.234,2.38-1.092,4.018-2.926,5.11-3.043,1.755-6.164,3.277-9.831,3.433-3.2.117-6.359.312-9.519.741a33.066,33.066,0,0,0-5.305,1.6c-1.912.624-3.745,1.716-5.657,1.833-12.366.975-24.264,4.408-36.475,6.281-.741.117-1.365,1.092-2.029,1.677-.546.468-.975,1.17-1.638,1.443-1.131.429-2.224.663-1.99,2.3.2,1.56.546,2.809,2.38,3,3.16.312,6.32.819,9.48.9,9.05.156,18.062.078,27.112.2,5.383.078,10.767.312,16.15.507a16.136,16.136,0,0,1,1.716.312,6.853,6.853,0,0,1-.273,1.131c-.7,2.146-.39,3.043,1.716,3.706a13.308,13.308,0,0,0,4.759.7c8.27-.663,16.5-1.716,24.3-4.876a2.72,2.72,0,0,0,1.56-1.365c.741-2.263,2.575-3.277,4.33-4.564.936-.7,2.146-1.677,2.3-2.653a171.979,171.979,0,0,0,2.575-18.3c.234-3.745-.78-7.607-1.248-11.391-.117-1.092-.156-2.224-.234-3.316.156-.039.351-.078.507-.117a19.837,19.837,0,0,1,1.17,1.951c7.841,16.852,15.838,33.627,23.367,50.6a146.1,146.1,0,0,1,6.437,19.349c1.131,4.018-2.536,7.256-6.749,6.749a17.666,17.666,0,0,0-5.852.663c-3.082.7-6.086,1.794-9.168,2.5-2.028.429-4.252.039-6.164.741a33.756,33.756,0,0,1-11.742,2.419,3.072,3.072,0,0,0-2.926,1.911,2.62,2.62,0,0,1-1.99,1.131c-3.628.039-7.256-.156-10.923-.234-1.677-.039-3.394-.156-5.032-.039-4.837.429-9.714.78-14.512,1.482-4.174.585-8.27,1.56-12.405,2.458-1.17.273-2.224,1.014-1.951,2.5.312,1.638-.507,2.107-1.912,2.419-2.809.624-3,1.17-2.146,3.9a3.455,3.455,0,0,0,3.355,2.731,15.44,15.44,0,0,1,3.277.468c1.014.312,2.3.663,2.848,1.443a5.861,5.861,0,0,0,4.837,2.419c3.9.273,7.8.351,11.664.819a12.325,12.325,0,0,1,5.539,1.873c1.443,1.053,2.77,1.951,4.486,1.911,4.525-.156,9.128-.117,13.615-.663,11.235-1.365,22.509-2.419,33.822-2.068a61.567,61.567,0,0,1,9.675.936c2.146.429,4.057.507,5.969-.624a14.656,14.656,0,0,1,8.582-1.989,5.42,5.42,0,0,0,3.55-1.092c2.224-1.911,4.837-3.628,5.305-6.944a2.7,2.7,0,0,1,.819-1.287,21.633,21.633,0,0,0,4.915-10.026c.9-3.628,1.794-7.295,2.653-10.923v-1.95c-.663-3.9-1.365-7.763-1.951-11.664C737.16,486.865,733.922,467.711,729.514,448.791Zm-203.284-98.7c-.078.2-.2.39-.273.546-.9-.078-1.794-.2-2.926-.312.468-.7.819-1.17,1.287-1.912C524.982,349,525.606,349.548,526.23,350.094Z" transform="translate(0)"/><path class="b" d="M1355.3,872.487a13.161,13.161,0,0,1,.624-1.287h0A13.161,13.161,0,0,0,1355.3,872.487Z" transform="translate(-826.651 -531.404)"/><path class="b" d="M1361.5,866.8v0Z" transform="translate(-830.432 -528.721)"/><path class="b" d="M1348.737,860.4c-1.209,2.614-4.409,4.525-2.107,8.427,1.092-1.912,2.184-3.862,3.276-5.812.078.507.156,1.053.234,1.6h0C1350.454,863.053,1350.493,861.531,1348.737,860.4Z" transform="translate(-820.868 -524.818)"/><path class="b" d="M1340.9,895.372c1.132.117,2.029.234,2.926.312.079-.2.2-.39.273-.546-.624-.546-1.249-1.092-1.912-1.638C1341.68,894.2,1341.368,894.67,1340.9,895.372Z" transform="translate(-817.869 -545.005)"/></g></svg>